<svg width="3408" height="234" viewBox="0 0 3408 234" fill="none" xmlns="http://www.w3.org/2000/svg">
<mask id="path-1-outside-1_0_1" maskUnits="userSpaceOnUse" x="-5" y="-2" width="513" height="194" fill="black">
<rect fill="white" x="-5" y="-2" width="513" height="194"/>
<path d="M0.55013 187V14.599H36.4282V162.538H114.125V187H0.55013ZM139.403 187V59.0971H173.883V187H139.403ZM139.403 37.5469V8.7746H173.883V37.5469H139.403ZM216.983 187V59.0971H251.464V83.2099C257.676 73.3473 264.549 66.3969 272.082 62.3587C279.615 58.2428 287.264 56.1849 295.03 56.1849C305.125 56.1849 313.784 59.4465 321.006 65.9698C328.306 72.4154 331.956 82.6275 331.956 96.6059V187H297.476V105.11C297.476 98.1203 296.816 93.3831 295.496 90.8981C294.253 88.413 292.506 86.5492 290.254 85.3067C288.079 83.9865 285.633 83.3264 282.915 83.3264C278.178 83.3264 273.247 84.9184 268.121 88.1024C262.996 91.2087 257.443 97.3437 251.464 106.507V187H216.983ZM373.775 187V3.06673H408.255V118.739H410.469L456.015 59.0971H484.671L442.619 113.846L497.834 187H455.899L410.469 123.049H408.255V187H373.775Z"/>
</mask>
<path d="M0.55013 187V14.599H36.4282V162.538H114.125V187H0.55013ZM139.403 187V59.0971H173.883V187H139.403ZM139.403 37.5469V8.7746H173.883V37.5469H139.403ZM216.983 187V59.0971H251.464V83.2099C257.676 73.3473 264.549 66.3969 272.082 62.3587C279.615 58.2428 287.264 56.1849 295.03 56.1849C305.125 56.1849 313.784 59.4465 321.006 65.9698C328.306 72.4154 331.956 82.6275 331.956 96.6059V187H297.476V105.11C297.476 98.1203 296.816 93.3831 295.496 90.8981C294.253 88.413 292.506 86.5492 290.254 85.3067C288.079 83.9865 285.633 83.3264 282.915 83.3264C278.178 83.3264 273.247 84.9184 268.121 88.1024C262.996 91.2087 257.443 97.3437 251.464 106.507V187H216.983ZM373.775 187V3.06673H408.255V118.739H410.469L456.015 59.0971H484.671L442.619 113.846L497.834 187H455.899L410.469 123.049H408.255V187H373.775Z" fill="#DCA413"/>
<path d="M0.55013 187H-4.44987V192H0.55013V187ZM0.55013 14.599V9.59896H-4.44987V14.599H0.55013ZM36.4282 14.599H41.4282V9.59896H36.4282V14.599ZM36.4282 162.538H31.4282V167.538H36.4282V162.538ZM114.125 162.538H119.125V157.538H114.125V162.538ZM114.125 187V192H119.125V187H114.125ZM5.55013 187V14.599H-4.44987V187H5.55013ZM0.55013 19.599H36.4282V9.59896H0.55013V19.599ZM31.4282 14.599V162.538H41.4282V14.599H31.4282ZM36.4282 167.538H114.125V157.538H36.4282V167.538ZM109.125 162.538V187H119.125V162.538H109.125ZM114.125 182H0.55013V192H114.125V182ZM139.403 187H134.403V192H139.403V187ZM139.403 59.0971V54.0971H134.403V59.0971H139.403ZM173.883 59.0971H178.883V54.0971H173.883V59.0971ZM173.883 187V192H178.883V187H173.883ZM139.403 37.5469H134.403V42.5469H139.403V37.5469ZM139.403 8.7746V3.7746H134.403V8.7746H139.403ZM173.883 8.7746H178.883V3.7746H173.883V8.7746ZM173.883 37.5469V42.5469H178.883V37.5469H173.883ZM144.403 187V59.0971H134.403V187H144.403ZM139.403 64.0971H173.883V54.0971H139.403V64.0971ZM168.883 59.0971V187H178.883V59.0971H168.883ZM173.883 182H139.403V192H173.883V182ZM144.403 37.5469V8.7746H134.403V37.5469H144.403ZM139.403 13.7746H173.883V3.7746H139.403V13.7746ZM168.883 8.7746V37.5469H178.883V8.7746H168.883ZM173.883 32.5469H139.403V42.5469H173.883V32.5469ZM216.983 187H211.983V192H216.983V187ZM216.983 59.0971V54.0971H211.983V59.0971H216.983ZM251.464 59.0971H256.464V54.0971H251.464V59.0971ZM251.464 83.2099H246.464V100.528L255.694 85.8749L251.464 83.2099ZM272.082 62.3587L274.444 66.7654L274.462 66.756L274.479 66.7465L272.082 62.3587ZM321.006 65.9698L317.655 69.6803L317.676 69.6992L317.697 69.7178L321.006 65.9698ZM331.956 187V192H336.956V187H331.956ZM297.476 187H292.476V192H297.476V187ZM295.496 90.8981L291.024 93.1341L291.051 93.1893L291.08 93.2438L295.496 90.8981ZM290.254 85.3067L287.659 89.5806L287.748 89.6345L287.838 89.6846L290.254 85.3067ZM268.121 88.1024L270.713 92.3784L270.736 92.3641L270.76 92.3496L268.121 88.1024ZM251.464 106.507L247.276 103.775L246.464 105.02V106.507H251.464ZM251.464 187V192H256.464V187H251.464ZM221.983 187V59.0971H211.983V187H221.983ZM216.983 64.0971H251.464V54.0971H216.983V64.0971ZM246.464 59.0971V83.2099H256.464V59.0971H246.464ZM255.694 85.8749C261.606 76.4896 267.902 70.2724 274.444 66.7654L269.719 57.952C261.196 62.5214 253.746 70.2051 247.233 80.545L255.694 85.8749ZM274.479 66.7465C281.356 62.9891 288.187 61.1849 295.03 61.1849V51.1849C286.34 51.1849 277.873 53.4966 269.684 57.971L274.479 66.7465ZM295.03 61.1849C303.938 61.1849 311.389 64.0205 317.655 69.6803L324.358 62.2593C316.18 54.8726 306.313 51.1849 295.03 51.1849V61.1849ZM317.697 69.7178C323.521 74.86 326.956 83.4211 326.956 96.6059H336.956C336.956 81.8338 333.092 69.9709 324.316 62.2218L317.697 69.7178ZM326.956 96.6059V187H336.956V96.6059H326.956ZM331.956 182H297.476V192H331.956V182ZM302.476 187V105.11H292.476V187H302.476ZM302.476 105.11C302.476 101.479 302.306 98.2998 301.933 95.6247C301.571 93.0236 300.972 90.5493 299.911 88.5523L291.08 93.2438C291.339 93.7319 291.731 94.8687 292.029 97.0048C292.316 99.0668 292.476 101.751 292.476 105.11H302.476ZM299.968 88.662C298.311 85.3475 295.88 82.7002 292.669 80.9288L287.838 89.6846C289.132 90.3983 290.196 91.4785 291.024 93.1341L299.968 88.662ZM292.849 81.0327C289.838 79.2049 286.483 78.3264 282.915 78.3264V88.3264C284.783 88.3264 286.321 88.7681 287.659 89.5806L292.849 81.0327ZM282.915 78.3264C277.022 78.3264 271.186 80.3123 265.483 83.8552L270.76 92.3496C275.307 89.5245 279.334 88.3264 282.915 88.3264V78.3264ZM265.53 83.8264C259.432 87.5221 253.381 94.4193 247.276 103.775L255.651 109.24C261.505 100.268 266.56 94.8953 270.713 92.3784L265.53 83.8264ZM246.464 106.507V187H256.464V106.507H246.464ZM251.464 182H216.983V192H251.464V182ZM373.775 187H368.775V192H373.775V187ZM373.775 3.06673V-1.93327H368.775V3.06673H373.775ZM408.255 3.06673H413.255V-1.93327H408.255V3.06673ZM408.255 118.739H403.255V123.739H408.255V118.739ZM410.469 118.739V123.739H412.941L414.442 121.773L410.469 118.739ZM456.015 59.0971V54.0971H453.542L452.041 56.0624L456.015 59.0971ZM484.671 59.0971L488.636 62.1428L494.816 54.0971H484.671V59.0971ZM442.619 113.846L438.654 110.8L436.335 113.82L438.628 116.858L442.619 113.846ZM497.834 187V192H507.872L501.825 183.988L497.834 187ZM455.899 187L451.822 189.896L453.317 192H455.899V187ZM410.469 123.049L414.545 120.153L413.05 118.049H410.469V123.049ZM408.255 123.049V118.049H403.255V123.049H408.255ZM408.255 187V192H413.255V187H408.255ZM378.775 187V3.06673H368.775V187H378.775ZM373.775 8.06673H408.255V-1.93327H373.775V8.06673ZM403.255 3.06673V118.739H413.255V3.06673H403.255ZM408.255 123.739H410.469V113.739H408.255V123.739ZM414.442 121.773L459.989 62.1317L452.041 56.0624L406.495 115.704L414.442 121.773ZM456.015 64.0971H484.671V54.0971H456.015V64.0971ZM480.706 56.0514L438.654 110.8L446.584 116.892L488.636 62.1428L480.706 56.0514ZM438.628 116.858L493.843 190.012L501.825 183.988L446.61 110.834L438.628 116.858ZM497.834 182H455.899V192H497.834V182ZM459.975 184.104L414.545 120.153L406.392 125.944L451.822 189.896L459.975 184.104ZM410.469 118.049H408.255V128.049H410.469V118.049ZM403.255 123.049V187H413.255V123.049H403.255ZM408.255 182H373.775V192H408.255V182Z" fill="#1B1B1B" mask="url(#path-1-outside-1_0_1)"/>
<mask id="path-3-outside-2_0_1" maskUnits="userSpaceOnUse" x="1910" y="-5" width="1506" height="244" fill="black">
<rect fill="white" x="1910" y="-5" width="1506" height="244"/>
<path d="M1915.88 185.486V155.898C1929.16 161.489 1939.06 164.829 1945.59 165.916C1952.19 167.003 1958.24 167.547 1963.76 167.547C1973.7 167.547 1981.11 165.295 1986.01 160.79C1990.9 156.286 1993.35 150.889 1993.35 144.599C1993.35 139.784 1992.03 135.435 1989.39 131.552C1986.74 127.747 1980.07 122.816 1969.35 116.758L1957.82 110.351C1941.35 101.11 1930.21 92.5677 1924.39 84.7242C1918.48 76.8808 1915.53 67.7948 1915.53 57.4662C1915.53 44.4973 1920.42 33.3922 1930.21 24.1509C1940.07 14.9096 1954.21 10.2889 1972.61 10.2889C1986.36 10.2889 2001.85 12.2692 2019.09 16.2298V43.8372C2001.54 37.2363 1987.6 33.9358 1977.27 33.9358C1968.73 33.9358 1962.2 35.8385 1957.7 39.6437C1953.27 43.3713 1951.06 47.8755 1951.06 53.1562C1951.06 57.1944 1952.38 60.9609 1955.02 64.4555C1957.58 67.9501 1964.22 72.7261 1974.94 78.7834L1987.29 85.6561C2006.16 96.2953 2018.2 105.537 2023.4 113.38C2028.52 121.301 2031.09 130.193 2031.09 140.056C2031.09 154.189 2025.73 166.265 2015.01 176.283C2004.37 186.301 1987.4 191.31 1964.11 191.31C1950.28 191.31 1934.21 189.369 1915.88 185.486ZM2140.93 187V162.887C2134.8 172.672 2127.97 179.622 2120.43 183.738C2112.9 187.854 2105.21 189.912 2097.37 189.912C2087.27 189.912 2078.58 186.689 2071.28 180.244C2064.05 173.72 2060.44 163.47 2060.44 149.491V59.0971H2094.92V140.988C2094.92 147.977 2095.54 152.714 2096.79 155.199C2098.11 157.684 2099.85 159.587 2102.03 160.907C2104.28 162.149 2106.77 162.771 2109.48 162.771C2114.22 162.771 2119.15 161.218 2124.28 158.111C2129.4 154.927 2134.96 148.753 2140.93 139.59V59.0971H2175.42V187H2140.93ZM2312.99 184.204C2298.7 188.01 2285.38 189.912 2273.03 189.912C2251.13 189.912 2234.67 183.467 2223.64 170.575C2212.61 157.606 2207.1 141.725 2207.1 122.932C2207.1 103.207 2212.92 87.1705 2224.57 74.8228C2236.22 62.3975 2253.35 56.1849 2275.94 56.1849C2286.35 56.1849 2298.35 57.8545 2311.94 61.1938V86.1221C2297.8 81.5403 2286.54 79.2493 2278.16 79.2493C2266.2 79.2493 2257.46 83.7923 2251.95 92.8784C2246.43 101.887 2243.68 111.827 2243.68 122.699C2243.68 131.086 2245.27 138.93 2248.45 146.229C2251.64 153.452 2256.06 158.732 2261.73 162.072C2267.48 165.411 2273.92 167.081 2281.07 167.081C2291.4 167.081 2302.04 164.829 2312.99 160.324V184.204ZM2439.96 184.204C2425.67 188.01 2412.35 189.912 2400 189.912C2378.1 189.912 2361.64 183.467 2350.61 170.575C2339.58 157.606 2334.07 141.725 2334.07 122.932C2334.07 103.207 2339.9 87.1705 2351.54 74.8228C2363.19 62.3975 2380.32 56.1849 2402.91 56.1849C2413.32 56.1849 2425.32 57.8545 2438.91 61.1938V86.1221C2424.78 81.5403 2413.51 79.2493 2405.13 79.2493C2393.17 79.2493 2384.43 83.7923 2378.92 92.8784C2373.4 101.887 2370.65 111.827 2370.65 122.699C2370.65 131.086 2372.24 138.93 2375.42 146.229C2378.61 153.452 2383.03 158.732 2388.7 162.072C2394.45 165.411 2400.9 167.081 2408.04 167.081C2418.37 167.081 2429.01 164.829 2439.96 160.324V184.204ZM2576.71 182.69C2560.33 187.505 2544.8 189.912 2530.12 189.912C2516.22 189.912 2504.03 187.349 2493.54 182.224C2483.14 177.021 2475.1 168.944 2469.43 157.995C2463.84 146.967 2461.04 135.008 2461.04 122.117C2461.04 110.157 2463.41 99.1298 2468.15 89.0343C2472.96 78.8611 2479.91 70.8623 2489 65.0379C2498.16 59.1359 2509.42 56.1849 2522.78 56.1849C2539.17 56.1849 2552.25 61.388 2562.04 71.7942C2571.82 82.2004 2576.71 101.576 2576.71 129.921H2497.39C2498.16 138.541 2500.1 145.336 2503.21 150.307C2506.39 155.277 2510.67 159.237 2516.02 162.188C2521.38 165.062 2528.57 166.498 2537.57 166.498C2549.14 166.498 2562.19 163.819 2576.71 158.461V182.69ZM2496.92 110.468H2542.82C2542.82 98.7415 2540.84 90.3545 2536.87 85.3067C2532.99 80.2589 2527.94 77.735 2521.73 77.735C2514.98 77.735 2509.42 80.5307 2505.07 86.1221C2500.73 91.6358 2498.01 99.7511 2496.92 110.468ZM2608.98 182.923V157.645C2626.07 164.79 2640.66 168.362 2652.78 168.362C2659.23 168.362 2664.35 167.003 2668.16 164.285C2672.04 161.567 2673.98 158.111 2673.98 153.918C2673.98 150.268 2672.54 147.2 2669.67 144.715C2666.8 142.308 2662.41 139.939 2656.51 137.609L2644.86 132.95C2632.82 128.135 2623.93 122.816 2618.18 116.991C2612.44 111.244 2609.56 103.75 2609.56 94.5092C2609.56 83.4041 2613.87 74.2404 2622.49 67.0182C2631.19 59.796 2644.43 56.1849 2662.22 56.1849C2672.62 56.1849 2685.01 57.6992 2699.37 60.7279V84.9572C2685.55 80.1424 2674.1 77.735 2665.01 77.735C2657.87 77.735 2652.51 78.9775 2648.94 81.4626C2645.36 83.87 2643.58 87.0152 2643.58 90.8981C2643.58 93.9267 2644.74 96.6059 2647.07 98.9357C2649.32 101.265 2653.44 103.556 2659.42 105.808L2669.44 109.653C2685.98 115.943 2696.81 122.039 2701.94 127.941C2706.99 133.921 2709.51 141.065 2709.51 149.375C2709.51 160.169 2704.85 169.643 2695.53 177.798C2686.29 185.874 2672.82 189.912 2655.11 189.912C2640.04 189.912 2624.67 187.582 2608.98 182.923ZM2743.87 182.923V157.645C2760.96 164.79 2775.56 168.362 2787.67 168.362C2794.12 168.362 2799.24 167.003 2803.05 164.285C2806.93 161.567 2808.87 158.111 2808.87 153.918C2808.87 150.268 2807.44 147.2 2804.56 144.715C2801.69 142.308 2797.3 139.939 2791.4 137.609L2779.75 132.95C2767.71 128.135 2758.82 122.816 2753.08 116.991C2747.33 111.244 2744.46 103.75 2744.46 94.5092C2744.46 83.4041 2748.77 74.2404 2757.39 67.0182C2766.08 59.796 2779.32 56.1849 2797.11 56.1849C2807.51 56.1849 2819.9 57.6992 2834.27 60.7279V84.9572C2820.44 80.1424 2808.99 77.735 2799.9 77.735C2792.76 77.735 2787.4 78.9775 2783.83 81.4626C2780.26 83.87 2778.47 87.0152 2778.47 90.8981C2778.47 93.9267 2779.63 96.6059 2781.96 98.9357C2784.22 101.265 2788.33 103.556 2794.31 105.808L2804.33 109.653C2820.87 115.943 2831.7 122.039 2836.83 127.941C2841.88 133.921 2844.4 141.065 2844.4 149.375C2844.4 160.169 2839.74 169.643 2830.42 177.798C2821.18 185.874 2807.71 189.912 2790 189.912C2774.94 189.912 2759.56 187.582 2743.87 182.923ZM2885.75 187V80.6472H2868.16V59.0971H2885.75V49.8946C2885.75 32.0332 2889.83 19.2973 2897.99 11.6868C2906.22 3.99862 2917.87 0.154547 2932.93 0.154547C2943.1 0.154547 2953.59 1.63005 2964.38 4.58106V27.8785C2954.6 23.7626 2945.82 21.7047 2938.06 21.7047C2934.41 21.7047 2931.26 22.4424 2928.62 23.9179C2926.06 25.3158 2924 27.7232 2922.45 31.1401C2920.97 34.4794 2920.23 40.3038 2920.23 48.6132V59.0971H2952.62V80.6472H2920.23V187H2885.75ZM3060.25 187V162.887C3054.12 172.672 3047.28 179.622 3039.75 183.738C3032.22 187.854 3024.53 189.912 3016.69 189.912C3006.59 189.912 2997.89 186.689 2990.59 180.244C2983.37 173.72 2979.76 163.47 2979.76 149.491V59.0971H3014.24V140.988C3014.24 147.977 3014.86 152.714 3016.1 155.199C3017.42 157.684 3019.17 159.587 3021.35 160.907C3023.6 162.149 3026.08 162.771 3028.8 162.771C3033.54 162.771 3038.47 161.218 3043.59 158.111C3048.72 154.927 3054.27 148.753 3060.25 139.59V59.0971H3094.73V187H3060.25ZM3137.95 187V3.06673H3172.43V187H3137.95ZM3215.53 187V3.06673H3250.01V187H3215.53ZM3293.58 233.012L3322.58 187L3275.17 59.0971H3312.21L3343.9 144.599L3381.52 59.0971H3407.73L3328.75 233.012H3293.58Z"/>
</mask>
<path d="M1915.88 185.486V155.898C1929.16 161.489 1939.06 164.829 1945.59 165.916C1952.19 167.003 1958.24 167.547 1963.76 167.547C1973.7 167.547 1981.11 165.295 1986.01 160.79C1990.9 156.286 1993.35 150.889 1993.35 144.599C1993.35 139.784 1992.03 135.435 1989.39 131.552C1986.74 127.747 1980.07 122.816 1969.35 116.758L1957.82 110.351C1941.35 101.11 1930.21 92.5677 1924.39 84.7242C1918.48 76.8808 1915.53 67.7948 1915.53 57.4662C1915.53 44.4973 1920.42 33.3922 1930.21 24.1509C1940.07 14.9096 1954.21 10.2889 1972.61 10.2889C1986.36 10.2889 2001.85 12.2692 2019.09 16.2298V43.8372C2001.54 37.2363 1987.6 33.9358 1977.27 33.9358C1968.73 33.9358 1962.2 35.8385 1957.7 39.6437C1953.27 43.3713 1951.06 47.8755 1951.06 53.1562C1951.06 57.1944 1952.38 60.9609 1955.02 64.4555C1957.58 67.9501 1964.22 72.7261 1974.94 78.7834L1987.29 85.6561C2006.16 96.2953 2018.2 105.537 2023.4 113.38C2028.52 121.301 2031.09 130.193 2031.09 140.056C2031.09 154.189 2025.73 166.265 2015.01 176.283C2004.37 186.301 1987.4 191.31 1964.11 191.31C1950.28 191.31 1934.21 189.369 1915.88 185.486ZM2140.93 187V162.887C2134.8 172.672 2127.97 179.622 2120.43 183.738C2112.9 187.854 2105.21 189.912 2097.37 189.912C2087.27 189.912 2078.58 186.689 2071.28 180.244C2064.05 173.72 2060.44 163.47 2060.44 149.491V59.0971H2094.92V140.988C2094.92 147.977 2095.54 152.714 2096.79 155.199C2098.11 157.684 2099.85 159.587 2102.03 160.907C2104.28 162.149 2106.77 162.771 2109.48 162.771C2114.22 162.771 2119.15 161.218 2124.28 158.111C2129.4 154.927 2134.96 148.753 2140.93 139.59V59.0971H2175.42V187H2140.93ZM2312.99 184.204C2298.7 188.01 2285.38 189.912 2273.03 189.912C2251.13 189.912 2234.67 183.467 2223.64 170.575C2212.61 157.606 2207.1 141.725 2207.1 122.932C2207.1 103.207 2212.92 87.1705 2224.57 74.8228C2236.22 62.3975 2253.35 56.1849 2275.94 56.1849C2286.35 56.1849 2298.35 57.8545 2311.94 61.1938V86.1221C2297.8 81.5403 2286.54 79.2493 2278.16 79.2493C2266.2 79.2493 2257.46 83.7923 2251.95 92.8784C2246.43 101.887 2243.68 111.827 2243.68 122.699C2243.68 131.086 2245.27 138.93 2248.45 146.229C2251.64 153.452 2256.06 158.732 2261.73 162.072C2267.48 165.411 2273.92 167.081 2281.07 167.081C2291.4 167.081 2302.04 164.829 2312.99 160.324V184.204ZM2439.96 184.204C2425.67 188.01 2412.35 189.912 2400 189.912C2378.1 189.912 2361.64 183.467 2350.61 170.575C2339.58 157.606 2334.07 141.725 2334.07 122.932C2334.07 103.207 2339.9 87.1705 2351.54 74.8228C2363.19 62.3975 2380.32 56.1849 2402.91 56.1849C2413.32 56.1849 2425.32 57.8545 2438.91 61.1938V86.1221C2424.78 81.5403 2413.51 79.2493 2405.13 79.2493C2393.17 79.2493 2384.43 83.7923 2378.92 92.8784C2373.4 101.887 2370.65 111.827 2370.65 122.699C2370.65 131.086 2372.24 138.93 2375.42 146.229C2378.61 153.452 2383.03 158.732 2388.7 162.072C2394.45 165.411 2400.9 167.081 2408.04 167.081C2418.37 167.081 2429.01 164.829 2439.96 160.324V184.204ZM2576.71 182.69C2560.33 187.505 2544.8 189.912 2530.12 189.912C2516.22 189.912 2504.03 187.349 2493.54 182.224C2483.14 177.021 2475.1 168.944 2469.43 157.995C2463.84 146.967 2461.04 135.008 2461.04 122.117C2461.04 110.157 2463.41 99.1298 2468.15 89.0343C2472.96 78.8611 2479.91 70.8623 2489 65.0379C2498.16 59.1359 2509.42 56.1849 2522.78 56.1849C2539.17 56.1849 2552.25 61.388 2562.04 71.7942C2571.82 82.2004 2576.71 101.576 2576.71 129.921H2497.39C2498.16 138.541 2500.1 145.336 2503.21 150.307C2506.39 155.277 2510.67 159.237 2516.02 162.188C2521.38 165.062 2528.57 166.498 2537.57 166.498C2549.14 166.498 2562.19 163.819 2576.71 158.461V182.69ZM2496.92 110.468H2542.82C2542.82 98.7415 2540.84 90.3545 2536.87 85.3067C2532.99 80.2589 2527.94 77.735 2521.73 77.735C2514.98 77.735 2509.42 80.5307 2505.07 86.1221C2500.73 91.6358 2498.01 99.7511 2496.92 110.468ZM2608.98 182.923V157.645C2626.07 164.79 2640.66 168.362 2652.78 168.362C2659.23 168.362 2664.35 167.003 2668.16 164.285C2672.04 161.567 2673.98 158.111 2673.98 153.918C2673.98 150.268 2672.54 147.2 2669.67 144.715C2666.8 142.308 2662.41 139.939 2656.51 137.609L2644.86 132.95C2632.82 128.135 2623.93 122.816 2618.18 116.991C2612.44 111.244 2609.56 103.75 2609.56 94.5092C2609.56 83.4041 2613.87 74.2404 2622.49 67.0182C2631.19 59.796 2644.43 56.1849 2662.22 56.1849C2672.62 56.1849 2685.01 57.6992 2699.37 60.7279V84.9572C2685.55 80.1424 2674.1 77.735 2665.01 77.735C2657.87 77.735 2652.51 78.9775 2648.94 81.4626C2645.36 83.87 2643.58 87.0152 2643.58 90.8981C2643.58 93.9267 2644.74 96.6059 2647.07 98.9357C2649.32 101.265 2653.44 103.556 2659.42 105.808L2669.44 109.653C2685.98 115.943 2696.81 122.039 2701.94 127.941C2706.99 133.921 2709.51 141.065 2709.51 149.375C2709.51 160.169 2704.85 169.643 2695.53 177.798C2686.29 185.874 2672.82 189.912 2655.11 189.912C2640.04 189.912 2624.67 187.582 2608.98 182.923ZM2743.87 182.923V157.645C2760.96 164.79 2775.56 168.362 2787.67 168.362C2794.12 168.362 2799.24 167.003 2803.05 164.285C2806.93 161.567 2808.87 158.111 2808.87 153.918C2808.87 150.268 2807.44 147.2 2804.56 144.715C2801.69 142.308 2797.3 139.939 2791.4 137.609L2779.75 132.95C2767.71 128.135 2758.82 122.816 2753.08 116.991C2747.33 111.244 2744.46 103.75 2744.46 94.5092C2744.46 83.4041 2748.77 74.2404 2757.39 67.0182C2766.08 59.796 2779.32 56.1849 2797.11 56.1849C2807.51 56.1849 2819.9 57.6992 2834.27 60.7279V84.9572C2820.44 80.1424 2808.99 77.735 2799.9 77.735C2792.76 77.735 2787.4 78.9775 2783.83 81.4626C2780.26 83.87 2778.47 87.0152 2778.47 90.8981C2778.47 93.9267 2779.63 96.6059 2781.96 98.9357C2784.22 101.265 2788.33 103.556 2794.31 105.808L2804.33 109.653C2820.87 115.943 2831.7 122.039 2836.83 127.941C2841.88 133.921 2844.4 141.065 2844.4 149.375C2844.4 160.169 2839.74 169.643 2830.42 177.798C2821.18 185.874 2807.71 189.912 2790 189.912C2774.94 189.912 2759.56 187.582 2743.87 182.923ZM2885.75 187V80.6472H2868.16V59.0971H2885.75V49.8946C2885.75 32.0332 2889.83 19.2973 2897.99 11.6868C2906.22 3.99862 2917.87 0.154547 2932.93 0.154547C2943.1 0.154547 2953.59 1.63005 2964.38 4.58106V27.8785C2954.6 23.7626 2945.82 21.7047 2938.06 21.7047C2934.41 21.7047 2931.26 22.4424 2928.62 23.9179C2926.06 25.3158 2924 27.7232 2922.45 31.1401C2920.97 34.4794 2920.23 40.3038 2920.23 48.6132V59.0971H2952.62V80.6472H2920.23V187H2885.75ZM3060.25 187V162.887C3054.12 172.672 3047.28 179.622 3039.75 183.738C3032.22 187.854 3024.53 189.912 3016.69 189.912C3006.59 189.912 2997.89 186.689 2990.59 180.244C2983.37 173.72 2979.76 163.47 2979.76 149.491V59.0971H3014.24V140.988C3014.24 147.977 3014.86 152.714 3016.1 155.199C3017.42 157.684 3019.17 159.587 3021.35 160.907C3023.6 162.149 3026.08 162.771 3028.8 162.771C3033.54 162.771 3038.47 161.218 3043.59 158.111C3048.72 154.927 3054.27 148.753 3060.25 139.59V59.0971H3094.73V187H3060.25ZM3137.95 187V3.06673H3172.43V187H3137.95ZM3215.53 187V3.06673H3250.01V187H3215.53ZM3293.58 233.012L3322.58 187L3275.17 59.0971H3312.21L3343.9 144.599L3381.52 59.0971H3407.73L3328.75 233.012H3293.58Z" fill="#DCA413"/>
<path d="M1915.88 185.486H1910.88V189.537L1914.85 190.377L1915.88 185.486ZM1915.88 155.898L1917.82 151.29L1910.88 148.368V155.898H1915.88ZM1945.59 165.916L1944.76 170.848L1944.77 170.849L1945.59 165.916ZM1989.39 131.552L1993.52 128.741L1993.51 128.721L1993.49 128.702L1989.39 131.552ZM1969.35 116.758L1971.81 112.405L1971.79 112.396L1971.78 112.387L1969.35 116.758ZM1957.82 110.351L1955.37 114.712L1955.38 114.717L1955.39 114.722L1957.82 110.351ZM1924.39 84.7242L1928.4 81.7434L1928.39 81.7306L1928.38 81.7179L1924.39 84.7242ZM1930.21 24.1509L1926.79 20.5023L1926.78 20.5091L1926.78 20.5158L1930.21 24.1509ZM2019.09 16.2298H2024.09V12.2482L2020.21 11.3567L2019.09 16.2298ZM2019.09 43.8372L2017.33 48.5172L2024.09 51.0597V43.8372H2019.09ZM1957.7 39.6437L1960.92 43.4683L1960.93 43.4631L1957.7 39.6437ZM1955.02 64.4555L1959.05 61.4987L1959.03 61.4698L1959.01 61.4413L1955.02 64.4555ZM1974.94 78.7834L1972.48 83.1362L1972.49 83.1443L1972.51 83.1522L1974.94 78.7834ZM1987.29 85.6561L1989.74 81.3007L1989.73 81.294L1989.72 81.2873L1987.29 85.6561ZM2023.4 113.38L2027.6 110.664L2027.58 110.64L2027.57 110.616L2023.4 113.38ZM2015.01 176.283L2011.6 172.631L2011.59 172.637L2011.58 172.643L2015.01 176.283ZM1920.88 185.486V155.898H1910.88V185.486H1920.88ZM1913.94 160.506C1927.26 166.115 1937.62 169.658 1944.76 170.848L1946.41 160.984C1940.5 160 1931.06 156.864 1917.82 151.29L1913.94 160.506ZM1944.77 170.849C1951.59 171.972 1957.92 172.547 1963.76 172.547V162.547C1958.57 162.547 1952.79 162.034 1946.4 160.982L1944.77 170.849ZM1963.76 172.547C1974.35 172.547 1983.21 170.16 1989.39 164.469L1982.62 157.112C1979.02 160.429 1973.05 162.547 1963.76 162.547V172.547ZM1989.39 164.469C1995.25 159.079 1998.35 152.374 1998.35 144.599H1988.35C1988.35 149.404 1986.55 153.493 1982.62 157.112L1989.39 164.469ZM1998.35 144.599C1998.35 138.808 1996.74 133.475 1993.52 128.741L1985.25 134.364C1987.31 137.395 1988.35 140.76 1988.35 144.599H1998.35ZM1993.49 128.702C1991.71 126.125 1988.85 123.554 1985.37 120.977C1981.81 118.349 1977.27 115.491 1971.81 112.405L1966.89 121.111C1972.15 124.083 1976.31 126.719 1979.43 129.022C1982.62 131.377 1984.42 133.174 1985.28 134.403L1993.49 128.702ZM1971.78 112.387L1960.25 105.981L1955.39 114.722L1966.92 121.129L1971.78 112.387ZM1960.26 105.991C1943.95 96.8326 1933.57 88.7102 1928.4 81.7434L1920.37 87.7051C1926.85 96.4252 1938.76 105.388 1955.37 114.712L1960.26 105.991ZM1928.38 81.7179C1923.17 74.7882 1920.53 66.7707 1920.53 57.4662H1910.53C1910.53 68.8188 1913.8 78.9733 1920.39 87.7306L1928.38 81.7179ZM1920.53 57.4662C1920.53 45.9305 1924.82 36.123 1933.64 27.786L1926.78 20.5158C1916.03 30.6615 1910.53 43.0642 1910.53 57.4662H1920.53ZM1933.63 27.7995C1942.27 19.7 1955.01 15.2889 1972.61 15.2889V5.28893C1953.4 5.28893 1937.87 10.1192 1926.79 20.5023L1933.63 27.7995ZM1972.61 15.2889C1985.89 15.2889 2001 17.2039 2017.97 21.1028L2020.21 11.3567C2002.7 7.3345 1986.82 5.28893 1972.61 5.28893V15.2889ZM2014.09 16.2298V43.8372H2024.09V16.2298H2014.09ZM2020.85 39.1573C2003.12 32.4883 1988.5 28.9358 1977.27 28.9358V38.9358C1986.69 38.9358 1999.96 41.9843 2017.33 48.5172L2020.85 39.1573ZM1977.27 28.9358C1968.07 28.9358 1960.21 30.9783 1954.47 35.8243L1960.93 43.4631C1964.2 40.6986 1969.39 38.9358 1977.27 38.9358V28.9358ZM1954.48 35.8191C1949.05 40.3937 1946.06 46.2477 1946.06 53.1562H1956.06C1956.06 49.5032 1957.5 46.3489 1960.92 43.4683L1954.48 35.8191ZM1946.06 53.1562C1946.06 58.3761 1947.79 63.1849 1951.03 67.4696L1959.01 61.4413C1956.97 58.7368 1956.06 56.0128 1956.06 53.1562H1946.06ZM1950.99 67.4123C1952.75 69.8074 1955.56 72.244 1959 74.7174C1962.52 77.2502 1967.03 80.0579 1972.48 83.1362L1977.4 74.4306C1972.13 71.4516 1967.96 68.8426 1964.84 66.5994C1961.64 64.2968 1959.86 62.5982 1959.05 61.4987L1950.99 67.4123ZM1972.51 83.1522L1984.86 90.025L1989.72 81.2873L1977.37 74.4146L1972.51 83.1522ZM1984.83 90.0116C2003.69 100.643 2014.75 109.392 2019.23 116.144L2027.57 110.616C2021.64 101.682 2008.63 91.9476 1989.74 81.3007L1984.83 90.0116ZM2019.2 116.096C2023.78 123.171 2026.09 131.111 2026.09 140.056H2036.09C2036.09 129.275 2033.27 119.432 2027.6 110.664L2019.2 116.096ZM2026.09 140.056C2026.09 152.747 2021.35 163.518 2011.6 172.631L2018.43 179.936C2030.11 169.013 2036.09 155.632 2036.09 140.056H2026.09ZM2011.58 172.643C2002.29 181.393 1986.85 186.31 1964.11 186.31V196.31C1987.96 196.31 2006.45 191.209 2018.44 179.923L2011.58 172.643ZM1964.11 186.31C1950.73 186.31 1935.02 184.429 1916.92 180.594L1914.85 190.377C1933.4 194.309 1949.84 196.31 1964.11 196.31V186.31ZM2140.93 187H2135.93V192H2140.93V187ZM2140.93 162.887H2145.93V145.5L2136.7 160.231L2140.93 162.887ZM2071.28 180.244L2067.92 183.954L2067.95 183.973L2067.97 183.992L2071.28 180.244ZM2060.44 59.0971V54.0971H2055.44V59.0971H2060.44ZM2094.92 59.0971H2099.92V54.0971H2094.92V59.0971ZM2096.79 155.199L2092.31 157.435L2092.34 157.49L2092.37 157.545L2096.79 155.199ZM2102.03 160.907L2099.43 165.181L2099.52 165.235L2099.61 165.285L2102.03 160.907ZM2124.28 158.111L2126.87 162.387L2126.89 162.373L2126.92 162.358L2124.28 158.111ZM2140.93 139.59L2145.12 142.322L2145.93 141.077V139.59H2140.93ZM2140.93 59.0971V54.0971H2135.93V59.0971H2140.93ZM2175.42 59.0971H2180.42V54.0971H2175.42V59.0971ZM2175.42 187V192H2180.42V187H2175.42ZM2145.93 187V162.887H2135.93V187H2145.93ZM2136.7 160.231C2130.87 169.532 2124.6 175.763 2118.04 179.351L2122.83 188.126C2131.33 183.482 2138.73 175.812 2145.17 165.543L2136.7 160.231ZM2118.04 179.351C2111.17 183.104 2104.3 184.912 2097.37 184.912V194.912C2106.13 194.912 2114.63 192.605 2122.83 188.126L2118.04 179.351ZM2097.37 184.912C2088.44 184.912 2080.94 182.103 2074.59 176.496L2067.97 183.992C2076.22 191.276 2086.1 194.912 2097.37 194.912V184.912ZM2074.63 176.533C2068.85 171.311 2065.44 162.686 2065.44 149.491H2055.44C2055.44 164.254 2059.26 176.13 2067.92 183.954L2074.63 176.533ZM2065.44 149.491V59.0971H2055.44V149.491H2065.44ZM2060.44 64.0971H2094.92V54.0971H2060.44V64.0971ZM2089.92 59.0971V140.988H2099.92V59.0971H2089.92ZM2089.92 140.988C2089.92 144.61 2090.08 147.775 2090.43 150.433C2090.77 153.016 2091.33 155.461 2092.31 157.435L2101.26 152.963C2101 152.452 2100.63 151.286 2100.35 149.132C2100.07 147.053 2099.92 144.354 2099.92 140.988H2089.92ZM2092.37 157.545C2094.07 160.738 2096.41 163.345 2099.43 165.181L2104.62 156.633C2103.3 155.828 2102.15 154.63 2101.2 152.853L2092.37 157.545ZM2099.61 165.285C2102.65 166.959 2105.97 167.771 2109.48 167.771V157.771C2107.56 157.771 2105.91 157.34 2104.44 156.529L2099.61 165.285ZM2109.48 167.771C2115.35 167.771 2121.17 165.843 2126.87 162.387L2121.69 153.835C2117.14 156.592 2113.09 157.771 2109.48 157.771V167.771ZM2126.92 162.358C2132.98 158.591 2139.02 151.679 2145.12 142.322L2136.75 136.857C2130.89 145.828 2125.83 151.263 2121.64 153.864L2126.92 162.358ZM2145.93 139.59V59.0971H2135.93V139.59H2145.93ZM2140.93 64.0971H2175.42V54.0971H2140.93V64.0971ZM2170.42 59.0971V187H2180.42V59.0971H2170.42ZM2175.42 182H2140.93V192H2175.42V182ZM2312.99 184.204L2314.27 189.036L2317.99 188.047V184.204H2312.99ZM2223.64 170.575L2219.83 173.814L2219.84 173.82L2219.84 173.825L2223.64 170.575ZM2224.57 74.8228L2228.21 78.2539L2228.22 78.2482L2228.22 78.2425L2224.57 74.8228ZM2311.94 61.1938H2316.94V57.2737L2313.13 56.3383L2311.94 61.1938ZM2311.94 86.1221L2310.4 90.8784L2316.94 92.9991V86.1221H2311.94ZM2251.95 92.8784L2256.21 95.4886L2256.22 95.4804L2256.22 95.4723L2251.95 92.8784ZM2248.45 146.229L2243.87 148.228L2243.87 148.237L2243.88 148.246L2248.45 146.229ZM2261.73 162.072L2259.19 166.38L2259.21 166.387L2259.22 166.395L2261.73 162.072ZM2312.99 160.324H2317.99V152.861L2311.08 155.7L2312.99 160.324ZM2311.7 179.373C2297.75 183.087 2284.87 184.912 2273.03 184.912V194.912C2285.89 194.912 2299.64 192.932 2314.27 189.036L2311.7 179.373ZM2273.03 184.912C2252.14 184.912 2237.26 178.801 2227.44 167.325L2219.84 173.825C2232.08 188.132 2250.13 194.912 2273.03 194.912V184.912ZM2227.45 167.336C2217.27 155.367 2212.1 140.671 2212.1 122.932H2202.1C2202.1 142.78 2207.95 159.845 2219.83 173.814L2227.45 167.336ZM2212.1 122.932C2212.1 104.261 2217.58 89.5242 2228.21 78.2539L2220.94 71.3917C2208.27 84.8168 2202.1 102.153 2202.1 122.932H2212.1ZM2228.22 78.2425C2238.64 67.1249 2254.25 61.1849 2275.94 61.1849V51.1849C2252.44 51.1849 2233.8 57.6702 2220.93 71.4031L2228.22 78.2425ZM2275.94 61.1849C2285.84 61.1849 2297.42 62.7754 2310.75 66.0494L2313.13 56.3383C2299.28 52.9336 2286.86 51.1849 2275.94 51.1849V61.1849ZM2306.94 61.1938V86.1221H2316.94V61.1938H2306.94ZM2313.48 81.3658C2299.17 76.7267 2287.32 74.2494 2278.16 74.2494V84.2493C2285.77 84.2493 2296.44 86.3538 2310.4 90.8784L2313.48 81.3658ZM2278.16 74.2494C2264.71 74.2494 2254.22 79.4941 2247.67 90.2844L2256.22 95.4723C2260.7 88.0906 2267.68 84.2493 2278.16 84.2493V74.2494ZM2247.68 90.2681C2241.67 100.086 2238.68 110.934 2238.68 122.699H2248.68C2248.68 112.72 2251.19 103.687 2256.21 95.4886L2247.68 90.2681ZM2238.68 122.699C2238.68 131.737 2240.4 140.265 2243.87 148.228L2253.04 144.23C2250.14 137.594 2248.68 130.435 2248.68 122.699H2238.68ZM2243.88 148.246C2247.4 156.231 2252.45 162.41 2259.19 166.38L2264.27 157.764C2259.67 155.055 2255.88 150.672 2253.03 144.212L2243.88 148.246ZM2259.22 166.395C2265.79 170.211 2273.11 172.081 2281.07 172.081V162.081C2274.74 162.081 2269.17 160.611 2264.24 157.749L2259.22 166.395ZM2281.07 172.081C2292.14 172.081 2303.42 169.665 2314.89 164.949L2311.08 155.7C2300.65 159.992 2290.66 162.081 2281.07 162.081V172.081ZM2307.99 160.324V184.204H2317.99V160.324H2307.99ZM2439.96 184.204L2441.24 189.036L2444.96 188.047V184.204H2439.96ZM2350.61 170.575L2346.8 173.814L2346.81 173.82L2346.81 173.825L2350.61 170.575ZM2351.54 74.8228L2355.18 78.2539L2355.19 78.2482L2355.19 78.2425L2351.54 74.8228ZM2438.91 61.1938H2443.91V57.2737L2440.1 56.3383L2438.91 61.1938ZM2438.91 86.1221L2437.37 90.8784L2443.91 92.9991V86.1221H2438.91ZM2378.92 92.8784L2383.18 95.4886L2383.19 95.4804L2383.19 95.4723L2378.92 92.8784ZM2375.42 146.229L2370.84 148.228L2370.84 148.237L2370.85 148.246L2375.42 146.229ZM2388.7 162.072L2386.17 166.38L2386.18 166.387L2386.19 166.395L2388.7 162.072ZM2439.96 160.324H2444.96V152.861L2438.06 155.7L2439.96 160.324ZM2438.67 179.373C2424.72 183.087 2411.84 184.912 2400 184.912V194.912C2412.86 194.912 2426.62 192.932 2441.24 189.036L2438.67 179.373ZM2400 184.912C2379.11 184.912 2364.23 178.801 2354.41 167.325L2346.81 173.825C2359.05 188.132 2377.1 194.912 2400 194.912V184.912ZM2354.42 167.336C2344.24 155.367 2339.07 140.671 2339.07 122.932H2329.07C2329.07 142.78 2334.93 159.845 2346.8 173.814L2354.42 167.336ZM2339.07 122.932C2339.07 104.261 2344.55 89.5242 2355.18 78.2539L2347.91 71.3917C2335.24 84.8168 2329.07 102.153 2329.07 122.932H2339.07ZM2355.19 78.2425C2365.61 67.1249 2381.23 61.1849 2402.91 61.1849V51.1849C2379.41 51.1849 2360.77 57.6702 2347.9 71.4031L2355.19 78.2425ZM2402.91 61.1849C2412.81 61.1849 2424.39 62.7754 2437.72 66.0494L2440.1 56.3383C2426.25 52.9336 2413.83 51.1849 2402.91 51.1849V61.1849ZM2433.91 61.1938V86.1221H2443.91V61.1938H2433.91ZM2440.45 81.3658C2426.14 76.7267 2414.29 74.2494 2405.13 74.2494V84.2493C2412.74 84.2493 2423.41 86.3538 2437.37 90.8784L2440.45 81.3658ZM2405.13 74.2494C2391.68 74.2494 2381.19 79.4941 2374.64 90.2844L2383.19 95.4723C2387.67 88.0906 2394.65 84.2493 2405.13 84.2493V74.2494ZM2374.65 90.2681C2368.64 100.086 2365.65 110.934 2365.65 122.699H2375.65C2375.65 112.72 2378.16 103.687 2383.18 95.4886L2374.65 90.2681ZM2365.65 122.699C2365.65 131.737 2367.37 140.265 2370.84 148.228L2380.01 144.23C2377.11 137.594 2375.65 130.435 2375.65 122.699H2365.65ZM2370.85 148.246C2374.37 156.231 2379.43 162.41 2386.17 166.38L2391.24 157.764C2386.64 155.055 2382.85 150.672 2380 144.212L2370.85 148.246ZM2386.19 166.395C2392.76 170.211 2400.08 172.081 2408.04 172.081V162.081C2401.71 162.081 2396.14 160.611 2391.22 157.749L2386.19 166.395ZM2408.04 172.081C2419.11 172.081 2430.39 169.665 2441.86 164.949L2438.06 155.7C2427.62 159.992 2417.63 162.081 2408.04 162.081V172.081ZM2434.96 160.324V184.204H2444.96V160.324H2434.96ZM2576.71 182.69L2578.12 187.487L2581.71 186.432V182.69H2576.71ZM2493.54 182.224L2491.31 186.696L2491.33 186.706L2491.35 186.716L2493.54 182.224ZM2469.43 157.995L2464.97 160.256L2464.98 160.275L2464.99 160.294L2469.43 157.995ZM2468.15 89.0343L2463.63 86.8953L2463.62 86.9028L2463.62 86.9103L2468.15 89.0343ZM2489 65.0379L2491.7 69.2473L2491.71 69.2415L2489 65.0379ZM2576.71 129.921V134.921H2581.71V129.921H2576.71ZM2497.39 129.921V124.921H2491.92L2492.41 130.37L2497.39 129.921ZM2503.21 150.307L2498.97 152.957L2498.98 152.98L2499 153.004L2503.21 150.307ZM2516.02 162.188L2513.61 166.568L2513.64 166.581L2513.66 166.595L2516.02 162.188ZM2576.71 158.461H2581.71V151.286L2574.98 153.77L2576.71 158.461ZM2496.92 110.468L2491.95 109.963L2491.39 115.468H2496.92V110.468ZM2542.82 110.468V115.468H2547.82V110.468H2542.82ZM2536.87 85.3067L2532.91 88.3552L2532.93 88.3743L2532.94 88.3931L2536.87 85.3067ZM2505.07 86.1221L2509 89.2185L2509.01 89.2052L2509.02 89.1918L2505.07 86.1221ZM2575.3 177.893C2559.3 182.595 2544.25 184.912 2530.12 184.912V194.912C2545.34 194.912 2561.35 192.415 2578.12 187.487L2575.3 177.893ZM2530.12 184.912C2516.83 184.912 2505.42 182.465 2495.74 177.732L2491.35 186.716C2502.63 192.234 2515.6 194.912 2530.12 194.912V184.912ZM2495.78 177.752C2486.38 173.051 2479.08 165.766 2473.87 155.696L2464.99 160.294C2471.11 172.123 2479.89 180.991 2491.31 186.696L2495.78 177.752ZM2473.89 155.734C2468.67 145.437 2466.04 134.257 2466.04 122.117H2456.04C2456.04 135.759 2459.01 148.497 2464.97 160.256L2473.89 155.734ZM2466.04 122.117C2466.04 110.837 2468.27 100.542 2472.67 91.1582L2463.62 86.9103C2458.55 97.7178 2456.04 109.477 2456.04 122.117H2466.04ZM2472.67 91.1732C2477.1 81.8091 2483.43 74.5436 2491.7 69.2473L2486.3 60.8285C2476.39 67.181 2468.83 75.913 2463.63 86.8953L2472.67 91.1732ZM2491.71 69.2415C2499.9 63.9658 2510.17 61.1849 2522.78 61.1849V51.1849C2508.68 51.1849 2496.43 54.306 2486.29 60.8343L2491.71 69.2415ZM2522.78 61.1849C2538.01 61.1849 2549.7 65.9694 2558.39 75.2193L2565.68 68.369C2554.81 56.8065 2540.32 51.1849 2522.78 51.1849V61.1849ZM2558.39 75.2193C2566.77 84.1322 2571.71 101.767 2571.71 129.921H2581.71C2581.71 101.385 2576.87 80.2685 2565.68 68.369L2558.39 75.2193ZM2576.71 124.921H2497.39V134.921H2576.71V124.921ZM2492.41 130.37C2493.22 139.428 2495.3 147.08 2498.97 152.957L2507.45 147.657C2504.91 143.593 2503.1 137.655 2502.37 129.473L2492.41 130.37ZM2499 153.004C2502.65 158.702 2507.55 163.23 2513.61 166.568L2518.44 157.808C2513.78 155.244 2510.14 151.851 2507.42 147.609L2499 153.004ZM2513.66 166.595C2520.01 170.001 2528.11 171.498 2537.57 171.498V161.498C2529.02 161.498 2522.75 160.123 2518.39 157.782L2513.66 166.595ZM2537.57 171.498C2549.9 171.498 2563.54 168.65 2578.44 163.151L2574.98 153.77C2560.84 158.989 2548.39 161.498 2537.57 161.498V171.498ZM2571.71 158.461V182.69H2581.71V158.461H2571.71ZM2496.92 115.468H2542.82V105.468H2496.92V115.468ZM2547.82 110.468C2547.82 98.4356 2545.83 88.6253 2540.81 82.2202L2532.94 88.3931C2535.84 92.0836 2537.82 99.0475 2537.82 110.468H2547.82ZM2540.84 82.2581C2536.04 76.0161 2529.54 72.735 2521.73 72.735V82.735C2526.35 82.735 2529.95 84.5018 2532.91 88.3552L2540.84 82.2581ZM2521.73 72.735C2513.35 72.735 2506.37 76.3116 2501.13 83.0524L2509.02 89.1918C2512.48 84.7498 2516.6 82.735 2521.73 82.735V72.735ZM2501.15 83.0257C2495.97 89.5848 2493.08 98.768 2491.95 109.963L2501.89 110.973C2502.93 100.734 2505.48 93.6869 2509 89.2185L2501.15 83.0257ZM2608.98 182.923H2603.98V186.654L2607.56 187.716L2608.98 182.923ZM2608.98 157.645L2610.91 153.032L2603.98 150.135V157.645H2608.98ZM2668.16 164.285L2665.29 160.189L2665.27 160.202L2665.25 160.216L2668.16 164.285ZM2669.67 144.715L2672.94 140.933L2672.91 140.908L2672.88 140.883L2669.67 144.715ZM2656.51 137.609L2654.65 142.252L2654.66 142.256L2654.67 142.26L2656.51 137.609ZM2618.18 116.991L2621.74 113.479L2621.73 113.468L2621.72 113.456L2618.18 116.991ZM2622.49 67.0182L2619.3 63.1715L2619.29 63.1785L2619.28 63.1856L2622.49 67.0182ZM2699.37 60.7279H2704.37V56.672L2700.41 55.8354L2699.37 60.7279ZM2699.37 84.9572L2697.73 89.679L2704.37 91.9934V84.9572H2699.37ZM2648.94 81.4626L2651.73 85.6089L2651.76 85.5883L2651.79 85.5671L2648.94 81.4626ZM2647.07 98.9357L2650.67 95.4606L2650.64 95.4301L2650.61 95.4001L2647.07 98.9357ZM2659.42 105.808L2661.21 101.14L2661.2 101.135L2661.18 101.129L2659.42 105.808ZM2669.44 109.653L2667.65 114.321L2667.65 114.323L2667.66 114.326L2669.44 109.653ZM2701.94 127.941L2705.76 124.716L2705.74 124.689L2705.71 124.663L2701.94 127.941ZM2695.53 177.798L2698.82 181.562L2698.82 181.56L2695.53 177.798ZM2613.98 182.923V157.645H2603.98V182.923H2613.98ZM2607.05 162.258C2624.46 169.537 2639.75 173.362 2652.78 173.362V163.362C2641.58 163.362 2627.67 160.043 2610.91 153.032L2607.05 162.258ZM2652.78 173.362C2659.88 173.362 2666.14 171.868 2671.06 168.354L2665.25 160.216C2662.56 162.138 2658.57 163.362 2652.78 163.362V173.362ZM2671.02 168.381C2676.04 164.869 2678.98 159.975 2678.98 153.918H2668.98C2668.98 156.248 2668.04 158.265 2665.29 160.189L2671.02 168.381ZM2678.98 153.918C2678.98 148.749 2676.86 144.324 2672.94 140.933L2666.4 148.497C2668.23 150.077 2668.98 151.786 2668.98 153.918H2678.98ZM2672.88 140.883C2669.41 137.973 2664.45 135.369 2658.34 132.959L2654.67 142.26C2660.37 144.509 2664.19 146.643 2666.46 148.548L2672.88 140.883ZM2658.36 132.967L2646.72 128.308L2643 137.592L2654.65 142.252L2658.36 132.967ZM2646.72 128.308C2634.99 123.616 2626.81 118.611 2621.74 113.479L2614.62 120.503C2621.05 127.02 2630.66 132.655 2643 137.592L2646.72 128.308ZM2621.72 113.456C2617.04 108.778 2614.56 102.622 2614.56 94.5092H2604.56C2604.56 104.879 2607.83 113.711 2614.65 120.527L2621.72 113.456ZM2614.56 94.5092C2614.56 84.9048 2618.2 77.1369 2625.7 70.8508L2619.28 63.1856C2609.54 71.3439 2604.56 81.9033 2604.56 94.5092H2614.56ZM2625.69 70.8649C2633.1 64.7106 2644.97 61.1849 2662.22 61.1849V51.1849C2643.9 51.1849 2629.28 54.8814 2619.3 63.1715L2625.69 70.8649ZM2662.22 61.1849C2672.17 61.1849 2684.19 62.6365 2698.34 65.6204L2700.41 55.8354C2685.83 52.7619 2673.08 51.1849 2662.22 51.1849V61.1849ZM2694.37 60.7279V84.9572H2704.37V60.7279H2694.37ZM2701.02 80.2355C2686.95 75.3347 2674.89 72.735 2665.01 72.735V82.735C2673.3 82.735 2684.15 84.9501 2697.73 89.679L2701.02 80.2355ZM2665.01 72.735C2657.44 72.735 2650.87 74.0237 2646.08 77.3581L2651.79 85.5671C2654.14 83.9314 2658.29 82.735 2665.01 82.735V72.735ZM2646.14 77.3163C2641.37 80.5336 2638.58 85.1494 2638.58 90.8981H2648.58C2648.58 88.881 2649.36 87.2064 2651.73 85.6089L2646.14 77.3163ZM2638.58 90.8981C2638.58 95.3759 2640.36 99.2946 2643.54 102.471L2650.61 95.4001C2649.12 93.9173 2648.58 92.4775 2648.58 90.8981H2638.58ZM2643.48 102.411C2646.53 105.574 2651.53 108.18 2657.66 110.488L2661.18 101.129C2655.35 98.9326 2652.11 96.957 2650.67 95.4606L2643.48 102.411ZM2657.63 110.477L2667.65 114.321L2671.23 104.984L2661.21 101.14L2657.63 110.477ZM2667.66 114.326C2684.17 120.605 2693.93 126.346 2698.16 131.219L2705.71 124.663C2699.69 117.732 2687.78 111.28 2671.21 104.979L2667.66 114.326ZM2698.12 131.166C2702.35 136.185 2704.51 142.167 2704.51 149.375H2714.51C2714.51 139.964 2711.62 131.656 2705.76 124.716L2698.12 131.166ZM2704.51 149.375C2704.51 158.508 2700.65 166.675 2692.24 174.035L2698.82 181.56C2709.05 172.612 2714.51 161.831 2714.51 149.375H2704.51ZM2692.24 174.033C2684.24 181.024 2672.13 184.912 2655.11 184.912V194.912C2673.5 194.912 2688.34 190.724 2698.82 181.562L2692.24 174.033ZM2655.11 184.912C2640.57 184.912 2625.67 182.664 2610.4 178.13L2607.56 187.716C2623.67 192.501 2639.52 194.912 2655.11 194.912V184.912ZM2743.87 182.923H2738.87V186.654L2742.45 187.716L2743.87 182.923ZM2743.87 157.645L2745.8 153.032L2738.87 150.135V157.645H2743.87ZM2803.05 164.285L2800.18 160.189L2800.16 160.202L2800.14 160.216L2803.05 164.285ZM2804.56 144.715L2807.83 140.933L2807.8 140.908L2807.77 140.883L2804.56 144.715ZM2791.4 137.609L2789.54 142.252L2789.55 142.256L2789.56 142.26L2791.4 137.609ZM2753.08 116.991L2756.63 113.479L2756.62 113.468L2756.61 113.456L2753.08 116.991ZM2757.39 67.0182L2754.19 63.1715L2754.18 63.1785L2754.17 63.1856L2757.39 67.0182ZM2834.27 60.7279H2839.27V56.672L2835.3 55.8354L2834.27 60.7279ZM2834.27 84.9572L2832.62 89.679L2839.27 91.9934V84.9572H2834.27ZM2783.83 81.4626L2786.62 85.6089L2786.65 85.5883L2786.68 85.5671L2783.83 81.4626ZM2781.96 98.9357L2785.56 95.4606L2785.53 95.4301L2785.5 95.4001L2781.96 98.9357ZM2794.31 105.808L2796.1 101.14L2796.09 101.135L2796.07 101.129L2794.31 105.808ZM2804.33 109.653L2802.54 114.321L2802.55 114.323L2802.55 114.326L2804.33 109.653ZM2836.83 127.941L2840.65 124.716L2840.63 124.689L2840.6 124.663L2836.83 127.941ZM2830.42 177.798L2833.71 181.562L2833.72 181.56L2830.42 177.798ZM2748.87 182.923V157.645H2738.87V182.923H2748.87ZM2741.94 162.258C2759.35 169.537 2774.64 173.362 2787.67 173.362V163.362C2776.47 163.362 2762.57 160.043 2745.8 153.032L2741.94 162.258ZM2787.67 173.362C2794.77 173.362 2801.03 171.868 2805.95 168.354L2800.14 160.216C2797.45 162.138 2793.46 163.362 2787.67 163.362V173.362ZM2805.92 168.381C2810.93 164.869 2813.87 159.975 2813.87 153.918H2803.87C2803.87 156.248 2802.93 158.265 2800.18 160.189L2805.92 168.381ZM2813.87 153.918C2813.87 148.749 2811.75 144.324 2807.83 140.933L2801.29 148.497C2803.12 150.077 2803.87 151.786 2803.87 153.918H2813.87ZM2807.77 140.883C2804.3 137.973 2799.34 135.369 2793.24 132.959L2789.56 142.26C2795.26 144.509 2799.08 146.643 2801.35 148.548L2807.77 140.883ZM2793.26 132.967L2781.61 128.308L2777.89 137.592L2789.54 142.252L2793.26 132.967ZM2781.61 128.308C2769.88 123.616 2761.7 118.611 2756.63 113.479L2749.52 120.503C2755.95 127.02 2765.55 132.655 2777.89 137.592L2781.61 128.308ZM2756.61 113.456C2751.93 108.778 2749.46 102.622 2749.46 94.5092H2739.46C2739.46 104.879 2742.72 113.711 2749.54 120.527L2756.61 113.456ZM2749.46 94.5092C2749.46 84.9048 2753.09 77.1369 2760.6 70.8508L2754.17 63.1856C2744.44 71.3439 2739.46 81.9033 2739.46 94.5092H2749.46ZM2760.58 70.8649C2767.99 64.7106 2779.86 61.1849 2797.11 61.1849V51.1849C2778.79 51.1849 2764.17 54.8814 2754.19 63.1715L2760.58 70.8649ZM2797.11 61.1849C2807.06 61.1849 2819.08 62.6365 2833.24 65.6204L2835.3 55.8354C2820.72 52.7619 2807.97 51.1849 2797.11 51.1849V61.1849ZM2829.27 60.7279V84.9572H2839.27V60.7279H2829.27ZM2835.91 80.2355C2821.84 75.3347 2809.79 72.735 2799.9 72.735V82.735C2808.19 82.735 2819.05 84.9501 2832.62 89.679L2835.91 80.2355ZM2799.9 72.735C2792.33 72.735 2785.77 74.0237 2780.97 77.3581L2786.68 85.5671C2789.03 83.9314 2793.18 82.735 2799.9 82.735V72.735ZM2781.03 77.3163C2776.26 80.5336 2773.47 85.1494 2773.47 90.8981H2783.47C2783.47 88.881 2784.25 87.2064 2786.62 85.6089L2781.03 77.3163ZM2773.47 90.8981C2773.47 95.3759 2775.25 99.2946 2778.43 102.471L2785.5 95.4001C2784.02 93.9173 2783.47 92.4775 2783.47 90.8981H2773.47ZM2778.37 102.411C2781.43 105.574 2786.42 108.18 2792.55 110.488L2796.07 101.129C2790.24 98.9326 2787.01 96.957 2785.56 95.4606L2778.37 102.411ZM2792.52 110.477L2802.54 114.321L2806.12 104.984L2796.1 101.14L2792.52 110.477ZM2802.55 114.326C2819.06 120.605 2828.82 126.346 2833.05 131.219L2840.6 124.663C2834.59 117.732 2822.68 111.28 2806.11 104.979L2802.55 114.326ZM2833.01 131.166C2837.25 136.185 2839.4 142.167 2839.4 149.375H2849.4C2849.4 139.964 2846.51 131.656 2840.65 124.716L2833.01 131.166ZM2839.4 149.375C2839.4 158.508 2835.54 166.675 2827.13 174.035L2833.72 181.56C2843.94 172.612 2849.4 161.831 2849.4 149.375H2839.4ZM2827.13 174.033C2819.13 181.024 2807.02 184.912 2790 184.912V194.912C2808.39 194.912 2823.23 190.724 2833.71 181.562L2827.13 174.033ZM2790 184.912C2775.46 184.912 2760.56 182.664 2745.3 178.13L2742.45 187.716C2758.56 192.501 2774.41 194.912 2790 194.912V184.912ZM2885.75 187H2880.75V192H2885.75V187ZM2885.75 80.6472H2890.75V75.6472H2885.75V80.6472ZM2868.16 80.6472H2863.16V85.6472H2868.16V80.6472ZM2868.16 59.0971V54.0971H2863.16V59.0971H2868.16ZM2885.75 59.0971V64.0971H2890.75V59.0971H2885.75ZM2897.99 11.6868L2901.4 15.3421L2901.4 15.3409L2897.99 11.6868ZM2964.38 4.58106H2969.38V0.764488L2965.7 -0.241959L2964.38 4.58106ZM2964.38 27.8785L2962.44 32.4874L2969.38 35.406V27.8785H2964.38ZM2928.62 23.9179L2931.02 28.3074L2931.04 28.2951L2931.06 28.2827L2928.62 23.9179ZM2922.45 31.1401L2917.9 29.0711L2917.88 29.0952L2917.87 29.1193L2922.45 31.1401ZM2920.23 59.0971H2915.23V64.0971H2920.23V59.0971ZM2952.62 59.0971H2957.62V54.0971H2952.62V59.0971ZM2952.62 80.6472V85.6472H2957.62V80.6472H2952.62ZM2920.23 80.6472V75.6472H2915.23V80.6472H2920.23ZM2920.23 187V192H2925.23V187H2920.23ZM2890.75 187V80.6472H2880.75V187H2890.75ZM2885.75 75.6472H2868.16V85.6472H2885.75V75.6472ZM2873.16 80.6472V59.0971H2863.16V80.6472H2873.16ZM2868.16 64.0971H2885.75V54.0971H2868.16V64.0971ZM2890.75 59.0971V49.8946H2880.75V59.0971H2890.75ZM2890.75 49.8946C2890.75 32.6088 2894.73 21.5683 2901.4 15.3421L2894.57 8.0315C2884.94 17.0262 2880.75 31.4576 2880.75 49.8946H2890.75ZM2901.4 15.3409C2908.43 8.77563 2918.7 5.15455 2932.93 5.15455V-4.84545C2917.04 -4.84545 2904.01 -0.778381 2894.57 8.03265L2901.4 15.3409ZM2932.93 5.15455C2942.62 5.15455 2952.66 6.55892 2963.06 9.40408L2965.7 -0.241959C2954.52 -3.29882 2943.59 -4.84545 2932.93 -4.84545V5.15455ZM2959.38 4.58106V27.8785H2969.38V4.58106H2959.38ZM2966.32 23.2696C2956.13 18.9844 2946.68 16.7047 2938.06 16.7047V26.7047C2944.96 26.7047 2953.06 28.5408 2962.44 32.4874L2966.32 23.2696ZM2938.06 16.7047C2933.73 16.7047 2929.71 17.583 2926.18 19.5532L2931.06 28.2827C2932.82 27.3018 2935.08 26.7047 2938.06 26.7047V16.7047ZM2926.23 19.5285C2922.47 21.5771 2919.77 24.9509 2917.9 29.0711L2927 33.2092C2928.23 30.4954 2929.65 29.0545 2931.02 28.3074L2926.23 19.5285ZM2917.87 29.1193C2915.94 33.5066 2915.23 40.2747 2915.23 48.6132H2925.23C2925.23 40.3329 2926.01 35.4523 2927.02 33.161L2917.87 29.1193ZM2915.23 48.6132V59.0971H2925.23V48.6132H2915.23ZM2920.23 64.0971H2952.62V54.0971H2920.23V64.0971ZM2947.62 59.0971V80.6472H2957.62V59.0971H2947.62ZM2952.62 75.6472H2920.23V85.6472H2952.62V75.6472ZM2915.23 80.6472V187H2925.23V80.6472H2915.23ZM2920.23 182H2885.75V192H2920.23V182ZM3060.25 187H3055.25V192H3060.25V187ZM3060.25 162.887H3065.25V145.5L3056.02 160.231L3060.25 162.887ZM2990.59 180.244L2987.24 183.954L2987.26 183.973L2987.28 183.992L2990.59 180.244ZM2979.76 59.0971V54.0971H2974.76V59.0971H2979.76ZM3014.24 59.0971H3019.24V54.0971H3014.24V59.0971ZM3016.1 155.199L3011.63 157.435L3011.66 157.49L3011.69 157.545L3016.1 155.199ZM3021.35 160.907L3018.75 165.181L3018.84 165.235L3018.93 165.285L3021.35 160.907ZM3043.59 158.111L3046.19 162.387L3046.21 162.373L3046.23 162.358L3043.59 158.111ZM3060.25 139.59L3064.44 142.322L3065.25 141.077V139.59H3060.25ZM3060.25 59.0971V54.0971H3055.25V59.0971H3060.25ZM3094.73 59.0971H3099.73V54.0971H3094.73V59.0971ZM3094.73 187V192H3099.73V187H3094.73ZM3065.25 187V162.887H3055.25V187H3065.25ZM3056.02 160.231C3050.18 169.532 3043.92 175.763 3037.35 179.351L3042.15 188.126C3050.65 183.482 3058.05 175.812 3064.49 165.543L3056.02 160.231ZM3037.35 179.351C3030.48 183.104 3023.61 184.912 3016.69 184.912V194.912C3025.44 194.912 3033.95 192.605 3042.15 188.126L3037.35 179.351ZM3016.69 184.912C3007.76 184.912 3000.25 182.103 2993.9 176.496L2987.28 183.992C2995.53 191.276 3005.42 194.912 3016.69 194.912V184.912ZM2993.94 176.533C2988.16 171.311 2984.76 162.686 2984.76 149.491H2974.76C2974.76 164.254 2978.58 176.13 2987.24 183.954L2993.94 176.533ZM2984.76 149.491V59.0971H2974.76V149.491H2984.76ZM2979.76 64.0971H3014.24V54.0971H2979.76V64.0971ZM3009.24 59.0971V140.988H3019.24V59.0971H3009.24ZM3009.24 140.988C3009.24 144.61 3009.4 147.775 3009.75 150.433C3010.09 153.016 3010.64 155.461 3011.63 157.435L3020.58 152.963C3020.32 152.452 3019.95 151.286 3019.66 149.132C3019.39 147.053 3019.24 144.354 3019.24 140.988H3009.24ZM3011.69 157.545C3013.38 160.738 3015.73 163.345 3018.75 165.181L3023.94 156.633C3022.61 155.828 3021.46 154.63 3020.52 152.853L3011.69 157.545ZM3018.93 165.285C3021.96 166.959 3025.29 167.771 3028.8 167.771V157.771C3026.88 157.771 3025.23 157.34 3023.76 156.529L3018.93 165.285ZM3028.8 167.771C3034.66 167.771 3040.48 165.843 3046.19 162.387L3041 153.835C3036.45 156.592 3032.41 157.771 3028.8 157.771V167.771ZM3046.23 162.358C3052.3 158.591 3058.33 151.679 3064.44 142.322L3056.06 136.857C3050.21 145.828 3045.14 151.263 3040.96 153.864L3046.23 162.358ZM3065.25 139.59V59.0971H3055.25V139.59H3065.25ZM3060.25 64.0971H3094.73V54.0971H3060.25V64.0971ZM3089.73 59.0971V187H3099.73V59.0971H3089.73ZM3094.73 182H3060.25V192H3094.73V182ZM3137.95 187H3132.95V192H3137.95V187ZM3137.95 3.06673V-1.93327H3132.95V3.06673H3137.95ZM3172.43 3.06673H3177.43V-1.93327H3172.43V3.06673ZM3172.43 187V192H3177.43V187H3172.43ZM3142.95 187V3.06673H3132.95V187H3142.95ZM3137.95 8.06673H3172.43V-1.93327H3137.95V8.06673ZM3167.43 3.06673V187H3177.43V3.06673H3167.43ZM3172.43 182H3137.95V192H3172.43V182ZM3215.53 187H3210.53V192H3215.53V187ZM3215.53 3.06673V-1.93327H3210.53V3.06673H3215.53ZM3250.01 3.06673H3255.01V-1.93327H3250.01V3.06673ZM3250.01 187V192H3255.01V187H3250.01ZM3220.53 187V3.06673H3210.53V187H3220.53ZM3215.53 8.06673H3250.01V-1.93327H3215.53V8.06673ZM3245.01 3.06673V187H3255.01V3.06673H3245.01ZM3250.01 182H3215.53V192H3250.01V182ZM3293.58 233.012L3289.35 230.346L3284.51 238.012H3293.58V233.012ZM3322.58 187L3326.81 189.666L3328.13 187.577L3327.27 185.262L3322.58 187ZM3275.17 59.0971V54.0971H3267.98L3270.48 60.8349L3275.17 59.0971ZM3312.21 59.0971L3316.9 57.3597L3315.69 54.0971H3312.21V59.0971ZM3343.9 144.599L3339.21 146.336L3343.5 157.915L3348.47 146.613L3343.9 144.599ZM3381.52 59.0971V54.0971H3378.26L3376.95 57.0832L3381.52 59.0971ZM3407.73 59.0971L3412.29 61.1645L3415.5 54.0971H3407.73V59.0971ZM3328.75 233.012V238.012H3331.98L3333.31 235.08L3328.75 233.012ZM3297.81 235.679L3326.81 189.666L3318.35 184.334L3289.35 230.346L3297.81 235.679ZM3327.27 185.262L3279.86 57.3592L3270.48 60.8349L3317.89 188.738L3327.27 185.262ZM3275.17 64.0971H3312.21V54.0971H3275.17V64.0971ZM3307.53 60.8345L3339.21 146.336L3348.59 142.861L3316.9 57.3597L3307.53 60.8345ZM3348.47 146.613L3386.1 61.111L3376.95 57.0832L3339.32 142.585L3348.47 146.613ZM3381.52 64.0971H3407.73V54.0971H3381.52V64.0971ZM3403.18 57.0297L3324.2 230.945L3333.31 235.08L3412.29 61.1645L3403.18 57.0297ZM3328.75 228.012H3293.58V238.012H3328.75V228.012Z" fill="#1B1B1B" mask="url(#path-3-outside-2_0_1)"/>
<mask id="path-5-outside-3_0_1" maskUnits="userSpaceOnUse" x="584" y="-2" width="1229" height="199" fill="black">
<rect fill="white" x="584" y="-2" width="1229" height="199"/>
<path d="M589.882 185.486V155.898C603.161 161.489 613.063 164.829 619.586 165.916C626.187 167.003 632.244 167.547 637.758 167.547C647.698 167.547 655.115 165.295 660.007 160.79C664.899 156.286 667.346 150.889 667.346 144.599C667.346 139.784 666.025 135.435 663.385 131.552C660.745 127.747 654.066 122.816 643.349 116.758L631.817 110.351C615.354 101.11 604.21 92.5677 598.385 84.7242C592.483 76.8808 589.532 67.7948 589.532 57.4662C589.532 44.4973 594.425 33.3922 604.21 24.1509C614.072 14.9096 628.206 10.2889 646.611 10.2889C660.356 10.2889 675.849 12.2692 693.089 16.2298V43.8372C675.539 37.2363 661.599 33.9358 651.27 33.9358C642.728 33.9358 636.205 35.8385 631.701 39.6437C627.274 43.3713 625.061 47.8755 625.061 53.1562C625.061 57.1944 626.381 60.9609 629.021 64.4555C631.584 67.9501 638.224 72.7261 648.941 78.7834L661.288 85.6561C680.159 96.2953 692.196 105.537 697.399 113.38C702.525 121.301 705.088 130.193 705.088 140.056C705.088 154.189 699.729 166.265 689.012 176.283C678.373 186.301 661.405 191.31 638.107 191.31C624.284 191.31 608.209 189.369 589.882 185.486ZM814.935 187V162.887C808.8 172.672 801.966 179.622 794.433 183.738C786.9 187.854 779.212 189.912 771.369 189.912C761.273 189.912 752.575 186.689 745.276 180.244C738.053 173.72 734.442 163.47 734.442 149.491V59.0971H768.923V140.988C768.923 147.977 769.544 152.714 770.786 155.199C772.106 157.684 773.854 159.587 776.028 160.907C778.28 162.149 780.765 162.771 783.483 162.771C788.221 162.771 793.152 161.218 798.277 158.111C803.403 154.927 808.955 148.753 814.935 139.59V59.0971H849.415V187H814.935ZM892.632 187V3.06673H927.112V83.2099C931.539 74.2016 937.247 67.4453 944.236 62.9411C951.225 58.437 959.457 56.1849 968.931 56.1849C984.696 56.1849 996.888 62.0092 1005.51 73.658C1014.13 85.3067 1018.44 100.605 1018.44 119.554C1018.44 139.59 1013.62 156.325 1003.99 169.76C994.364 183.195 980.929 189.912 963.689 189.912C958.874 189.912 954.409 189.369 950.293 188.281C946.177 187.272 942.294 185.719 938.644 183.622C935.072 181.525 931.228 178.341 927.112 174.07L920.705 187H892.632ZM927.112 153.568C932.005 159.004 936.586 162.693 940.858 164.634C945.129 166.576 949.478 167.547 953.904 167.547C963.301 167.547 970.29 163.004 974.872 153.918C979.454 144.754 981.745 134.27 981.745 122.466C981.745 110.274 979.531 100.683 975.105 93.6938C970.756 86.7045 964.543 83.2099 956.467 83.2099C951.419 83.2099 946.333 84.9961 941.207 88.5683C936.159 92.0629 931.461 96.8389 927.112 102.896V153.568ZM1050.82 187V59.0971H1083.9V83.2099C1088.25 75.4441 1093.96 68.9985 1101.03 63.873C1108.09 58.7476 1116.75 56.1849 1127 56.1849C1133.22 56.1849 1138.61 57.1556 1143.2 59.0971C1147.78 60.9609 1151.82 63.9507 1155.31 68.0666C1158.88 72.1048 1161.17 77.1526 1162.18 83.2099C1168.55 73.5803 1175 66.6687 1181.52 62.4752C1188.12 58.2817 1196.12 56.1849 1205.52 56.1849C1215.92 56.1849 1224.35 59.2524 1230.79 65.3874C1237.32 71.4447 1240.58 81.2685 1240.58 94.8586V187H1207.5V106.158C1207.5 96.6059 1205.94 90.4321 1202.84 87.6364C1199.81 84.8407 1196.39 83.4429 1192.59 83.4429C1187.38 83.4429 1182.22 85.3067 1177.09 89.0343C1172.05 92.7619 1167.08 98.3532 1162.18 105.808V187H1129.1V106.158C1129.1 96.6836 1127.59 90.5098 1124.56 87.6364C1121.61 84.7631 1118.03 83.3264 1113.84 83.3264C1108.79 83.3264 1103.75 85.1902 1098.7 88.9178C1093.73 92.6454 1088.8 98.2756 1083.9 105.808V187H1050.82ZM1282.17 187V59.0971H1316.65V187H1282.17ZM1282.17 37.5469V8.7746H1316.65V37.5469H1282.17ZM1425.68 186.301C1417.45 188.708 1410.96 189.912 1406.22 189.912C1394.96 189.912 1386.23 188.32 1380.01 185.136C1373.8 181.952 1369.14 177.642 1366.04 172.206C1362.93 166.692 1361.38 158.616 1361.38 147.977V80.6472H1347.05V59.0971H1361.38V37.5469L1395.86 33.5864V59.0971H1423.23V80.6472H1395.86V143.434C1395.86 152.675 1397.49 158.927 1400.75 162.188C1404.01 165.372 1408.79 166.964 1415.08 166.964C1418.03 166.964 1421.56 166.421 1425.68 165.333V186.301ZM1522.36 186.301C1514.13 188.708 1507.65 189.912 1502.91 189.912C1491.65 189.912 1482.91 188.32 1476.7 185.136C1470.49 181.952 1465.83 177.642 1462.72 172.206C1459.61 166.692 1458.06 158.616 1458.06 147.977V80.6472H1443.73V59.0971H1458.06V37.5469L1492.54 33.5864V59.0971H1519.92V80.6472H1492.54V143.434C1492.54 152.675 1494.17 158.927 1497.43 162.188C1500.7 165.372 1505.47 166.964 1511.76 166.964C1514.71 166.964 1518.25 166.421 1522.36 165.333V186.301ZM1657.25 182.69C1640.87 187.505 1625.34 189.912 1610.66 189.912C1596.76 189.912 1584.57 187.349 1574.08 182.224C1563.68 177.021 1555.64 168.944 1549.97 157.995C1544.38 146.967 1541.58 135.008 1541.58 122.117C1541.58 110.157 1543.95 99.1298 1548.69 89.0343C1553.5 78.8611 1560.45 70.8623 1569.54 65.0379C1578.7 59.1359 1589.96 56.1849 1603.32 56.1849C1619.71 56.1849 1632.79 61.388 1642.58 71.7942C1652.36 82.2004 1657.25 101.576 1657.25 129.921H1577.93C1578.7 138.541 1580.64 145.336 1583.75 150.307C1586.93 155.277 1591.21 159.237 1596.56 162.188C1601.92 165.062 1609.11 166.498 1618.11 166.498C1629.69 166.498 1642.73 163.819 1657.25 158.461V182.69ZM1577.46 110.468H1623.36C1623.36 98.7415 1621.38 90.3545 1617.42 85.3067C1613.53 80.2589 1608.48 77.735 1602.27 77.735C1595.52 77.735 1589.96 80.5307 1585.61 86.1221C1581.27 91.6358 1578.55 99.7511 1577.46 110.468ZM1773.39 187V162.887C1768.97 171.895 1763.26 178.652 1756.27 183.156C1749.36 187.66 1741.12 189.912 1731.57 189.912C1715.89 189.912 1703.73 184.127 1695.11 172.556C1686.49 160.907 1682.18 145.569 1682.18 126.543C1682.18 106.43 1687 89.6944 1696.63 76.3372C1706.26 62.9023 1719.69 56.1849 1736.93 56.1849C1741.59 56.1849 1745.86 56.6897 1749.74 57.6992C1753.63 58.6311 1757.36 60.1066 1760.93 62.1257C1764.5 64.1448 1768.65 67.4453 1773.39 72.0271V3.06673H1807.99V187H1773.39ZM1773.39 92.5289C1768.58 87.0928 1764.03 83.4041 1759.76 81.4626C1755.49 79.5212 1751.14 78.5504 1746.72 78.5504C1737.4 78.5504 1730.41 83.0546 1725.75 92.0629C1721.17 100.994 1718.88 111.516 1718.88 123.631C1718.88 135.59 1721.01 145.142 1725.28 152.287C1729.63 159.354 1735.88 162.887 1744.04 162.887C1749.24 162.887 1754.37 161.101 1759.41 157.529C1764.54 153.879 1769.2 149.103 1773.39 143.201V92.5289Z"/>
</mask>
<path d="M589.882 185.486V155.898C603.161 161.489 613.063 164.829 619.586 165.916C626.187 167.003 632.244 167.547 637.758 167.547C647.698 167.547 655.115 165.295 660.007 160.79C664.899 156.286 667.346 150.889 667.346 144.599C667.346 139.784 666.025 135.435 663.385 131.552C660.745 127.747 654.066 122.816 643.349 116.758L631.817 110.351C615.354 101.11 604.21 92.5677 598.385 84.7242C592.483 76.8808 589.532 67.7948 589.532 57.4662C589.532 44.4973 594.425 33.3922 604.21 24.1509C614.072 14.9096 628.206 10.2889 646.611 10.2889C660.356 10.2889 675.849 12.2692 693.089 16.2298V43.8372C675.539 37.2363 661.599 33.9358 651.27 33.9358C642.728 33.9358 636.205 35.8385 631.701 39.6437C627.274 43.3713 625.061 47.8755 625.061 53.1562C625.061 57.1944 626.381 60.9609 629.021 64.4555C631.584 67.9501 638.224 72.7261 648.941 78.7834L661.288 85.6561C680.159 96.2953 692.196 105.537 697.399 113.38C702.525 121.301 705.088 130.193 705.088 140.056C705.088 154.189 699.729 166.265 689.012 176.283C678.373 186.301 661.405 191.31 638.107 191.31C624.284 191.31 608.209 189.369 589.882 185.486ZM814.935 187V162.887C808.8 172.672 801.966 179.622 794.433 183.738C786.9 187.854 779.212 189.912 771.369 189.912C761.273 189.912 752.575 186.689 745.276 180.244C738.053 173.72 734.442 163.47 734.442 149.491V59.0971H768.923V140.988C768.923 147.977 769.544 152.714 770.786 155.199C772.106 157.684 773.854 159.587 776.028 160.907C778.28 162.149 780.765 162.771 783.483 162.771C788.221 162.771 793.152 161.218 798.277 158.111C803.403 154.927 808.955 148.753 814.935 139.59V59.0971H849.415V187H814.935ZM892.632 187V3.06673H927.112V83.2099C931.539 74.2016 937.247 67.4453 944.236 62.9411C951.225 58.437 959.457 56.1849 968.931 56.1849C984.696 56.1849 996.888 62.0092 1005.51 73.658C1014.13 85.3067 1018.44 100.605 1018.44 119.554C1018.44 139.59 1013.62 156.325 1003.99 169.76C994.364 183.195 980.929 189.912 963.689 189.912C958.874 189.912 954.409 189.369 950.293 188.281C946.177 187.272 942.294 185.719 938.644 183.622C935.072 181.525 931.228 178.341 927.112 174.07L920.705 187H892.632ZM927.112 153.568C932.005 159.004 936.586 162.693 940.858 164.634C945.129 166.576 949.478 167.547 953.904 167.547C963.301 167.547 970.29 163.004 974.872 153.918C979.454 144.754 981.745 134.27 981.745 122.466C981.745 110.274 979.531 100.683 975.105 93.6938C970.756 86.7045 964.543 83.2099 956.467 83.2099C951.419 83.2099 946.333 84.9961 941.207 88.5683C936.159 92.0629 931.461 96.8389 927.112 102.896V153.568ZM1050.82 187V59.0971H1083.9V83.2099C1088.25 75.4441 1093.96 68.9985 1101.03 63.873C1108.09 58.7476 1116.75 56.1849 1127 56.1849C1133.22 56.1849 1138.61 57.1556 1143.2 59.0971C1147.78 60.9609 1151.82 63.9507 1155.31 68.0666C1158.88 72.1048 1161.17 77.1526 1162.18 83.2099C1168.55 73.5803 1175 66.6687 1181.52 62.4752C1188.12 58.2817 1196.12 56.1849 1205.52 56.1849C1215.92 56.1849 1224.35 59.2524 1230.79 65.3874C1237.32 71.4447 1240.58 81.2685 1240.58 94.8586V187H1207.5V106.158C1207.5 96.6059 1205.94 90.4321 1202.84 87.6364C1199.81 84.8407 1196.39 83.4429 1192.59 83.4429C1187.38 83.4429 1182.22 85.3067 1177.09 89.0343C1172.05 92.7619 1167.08 98.3532 1162.18 105.808V187H1129.1V106.158C1129.1 96.6836 1127.59 90.5098 1124.56 87.6364C1121.61 84.7631 1118.03 83.3264 1113.84 83.3264C1108.79 83.3264 1103.75 85.1902 1098.7 88.9178C1093.73 92.6454 1088.8 98.2756 1083.9 105.808V187H1050.82ZM1282.17 187V59.0971H1316.65V187H1282.17ZM1282.17 37.5469V8.7746H1316.65V37.5469H1282.17ZM1425.68 186.301C1417.45 188.708 1410.96 189.912 1406.22 189.912C1394.96 189.912 1386.23 188.32 1380.01 185.136C1373.8 181.952 1369.14 177.642 1366.04 172.206C1362.93 166.692 1361.38 158.616 1361.38 147.977V80.6472H1347.05V59.0971H1361.38V37.5469L1395.86 33.5864V59.0971H1423.23V80.6472H1395.86V143.434C1395.86 152.675 1397.49 158.927 1400.75 162.188C1404.01 165.372 1408.79 166.964 1415.08 166.964C1418.03 166.964 1421.56 166.421 1425.68 165.333V186.301ZM1522.36 186.301C1514.13 188.708 1507.65 189.912 1502.91 189.912C1491.65 189.912 1482.91 188.32 1476.7 185.136C1470.49 181.952 1465.83 177.642 1462.72 172.206C1459.61 166.692 1458.06 158.616 1458.06 147.977V80.6472H1443.73V59.0971H1458.06V37.5469L1492.54 33.5864V59.0971H1519.92V80.6472H1492.54V143.434C1492.54 152.675 1494.17 158.927 1497.43 162.188C1500.7 165.372 1505.47 166.964 1511.76 166.964C1514.71 166.964 1518.25 166.421 1522.36 165.333V186.301ZM1657.25 182.69C1640.87 187.505 1625.34 189.912 1610.66 189.912C1596.76 189.912 1584.57 187.349 1574.08 182.224C1563.68 177.021 1555.64 168.944 1549.97 157.995C1544.38 146.967 1541.58 135.008 1541.58 122.117C1541.58 110.157 1543.95 99.1298 1548.69 89.0343C1553.5 78.8611 1560.45 70.8623 1569.54 65.0379C1578.7 59.1359 1589.96 56.1849 1603.32 56.1849C1619.71 56.1849 1632.79 61.388 1642.58 71.7942C1652.36 82.2004 1657.25 101.576 1657.25 129.921H1577.93C1578.7 138.541 1580.64 145.336 1583.75 150.307C1586.93 155.277 1591.21 159.237 1596.56 162.188C1601.92 165.062 1609.11 166.498 1618.11 166.498C1629.69 166.498 1642.73 163.819 1657.25 158.461V182.69ZM1577.46 110.468H1623.36C1623.36 98.7415 1621.38 90.3545 1617.42 85.3067C1613.53 80.2589 1608.48 77.735 1602.27 77.735C1595.52 77.735 1589.96 80.5307 1585.61 86.1221C1581.27 91.6358 1578.55 99.7511 1577.46 110.468ZM1773.39 187V162.887C1768.97 171.895 1763.26 178.652 1756.27 183.156C1749.36 187.66 1741.12 189.912 1731.57 189.912C1715.89 189.912 1703.73 184.127 1695.11 172.556C1686.49 160.907 1682.18 145.569 1682.18 126.543C1682.18 106.43 1687 89.6944 1696.63 76.3372C1706.26 62.9023 1719.69 56.1849 1736.93 56.1849C1741.59 56.1849 1745.86 56.6897 1749.74 57.6992C1753.63 58.6311 1757.36 60.1066 1760.93 62.1257C1764.5 64.1448 1768.65 67.4453 1773.39 72.0271V3.06673H1807.99V187H1773.39ZM1773.39 92.5289C1768.58 87.0928 1764.03 83.4041 1759.76 81.4626C1755.49 79.5212 1751.14 78.5504 1746.72 78.5504C1737.4 78.5504 1730.41 83.0546 1725.75 92.0629C1721.17 100.994 1718.88 111.516 1718.88 123.631C1718.88 135.59 1721.01 145.142 1725.28 152.287C1729.63 159.354 1735.88 162.887 1744.04 162.887C1749.24 162.887 1754.37 161.101 1759.41 157.529C1764.54 153.879 1769.2 149.103 1773.39 143.201V92.5289Z" fill="#1B1B1B"/>
<path d="M589.882 185.486H584.882V189.537L588.845 190.377L589.882 185.486ZM589.882 155.898L591.822 151.29L584.882 148.368V155.898H589.882ZM619.586 165.916L618.764 170.848L618.773 170.849L619.586 165.916ZM663.385 131.552L667.52 128.741L667.506 128.721L667.493 128.702L663.385 131.552ZM643.349 116.758L645.81 112.405L645.794 112.396L645.778 112.387L643.349 116.758ZM631.817 110.351L629.37 114.712L629.379 114.717L629.389 114.722L631.817 110.351ZM598.385 84.7242L602.4 81.7434L602.39 81.7306L602.381 81.7179L598.385 84.7242ZM604.21 24.1509L600.791 20.5023L600.784 20.5091L600.777 20.5158L604.21 24.1509ZM693.089 16.2298H698.089V12.2482L694.209 11.3567L693.089 16.2298ZM693.089 43.8372L691.329 48.5172L698.089 51.0597V43.8372H693.089ZM631.701 39.6437L634.921 43.4683L634.927 43.4631L631.701 39.6437ZM629.021 64.4555L633.053 61.4987L633.032 61.4698L633.011 61.4413L629.021 64.4555ZM648.941 78.7834L646.48 83.1362L646.495 83.1443L646.509 83.1522L648.941 78.7834ZM661.288 85.6561L663.744 81.3007L663.732 81.294L663.72 81.2873L661.288 85.6561ZM697.399 113.38L701.597 110.664L701.582 110.64L701.566 110.616L697.399 113.38ZM689.012 176.283L685.598 172.631L685.591 172.637L685.585 172.643L689.012 176.283ZM594.882 185.486V155.898H584.882V185.486H594.882ZM587.941 160.506C601.261 166.115 611.622 169.658 618.764 170.848L620.408 160.984C614.503 160 605.061 156.864 591.822 151.29L587.941 160.506ZM618.773 170.849C625.588 171.972 631.922 172.547 637.758 172.547V162.547C632.567 162.547 626.785 162.034 620.399 160.982L618.773 170.849ZM637.758 172.547C648.346 172.547 657.212 170.16 663.394 164.469L656.62 157.112C653.017 160.429 647.05 162.547 637.758 162.547V172.547ZM663.394 164.469C669.248 159.079 672.346 152.374 672.346 144.599H662.346C662.346 149.404 660.551 153.493 656.62 157.112L663.394 164.469ZM672.346 144.599C672.346 138.808 670.739 133.475 667.52 128.741L659.25 134.364C661.312 137.395 662.346 140.76 662.346 144.599H672.346ZM667.493 128.702C665.705 126.125 662.855 123.554 659.366 120.977C655.806 118.349 651.269 115.491 645.81 112.405L640.889 121.111C646.146 124.083 650.307 126.719 653.426 129.022C656.616 131.377 658.425 133.174 659.277 134.403L667.493 128.702ZM645.778 112.387L634.245 105.981L629.389 114.722L640.921 121.129L645.778 112.387ZM634.264 105.991C617.948 96.8326 607.573 88.7102 602.4 81.7434L594.371 87.7051C600.846 96.4252 612.759 105.388 629.37 114.712L634.264 105.991ZM602.381 81.7179C597.166 74.7882 594.532 66.7707 594.532 57.4662H584.532C584.532 68.8188 587.8 78.9733 594.39 87.7306L602.381 81.7179ZM594.532 57.4662C594.532 45.9305 598.815 36.123 607.643 27.786L600.777 20.5158C590.034 30.6615 584.532 43.0642 584.532 57.4662H594.532ZM607.628 27.7995C616.272 19.7 629.009 15.2889 646.611 15.2889V5.28893C627.403 5.28893 611.872 10.1192 600.791 20.5023L607.628 27.7995ZM646.611 15.2889C659.89 15.2889 674.998 17.2039 691.97 21.1028L694.209 11.3567C676.7 7.3345 660.823 5.28893 646.611 5.28893V15.2889ZM688.089 16.2298V43.8372H698.089V16.2298H688.089ZM694.85 39.1573C677.118 32.4883 662.505 28.9358 651.27 28.9358V38.9358C660.693 38.9358 673.959 41.9843 691.329 48.5172L694.85 39.1573ZM651.27 28.9358C642.065 28.9358 634.21 30.9783 628.474 35.8243L634.927 43.4631C638.2 40.6986 643.391 38.9358 651.27 38.9358V28.9358ZM628.48 35.8191C623.048 40.3937 620.061 46.2477 620.061 53.1562H630.061C630.061 49.5032 631.501 46.3489 634.921 43.4683L628.48 35.8191ZM620.061 53.1562C620.061 58.3761 621.795 63.1849 625.032 67.4696L633.011 61.4413C630.967 58.7368 630.061 56.0128 630.061 53.1562H620.061ZM624.989 67.4123C626.746 69.8074 629.565 72.244 633.004 74.7174C636.525 77.2502 641.034 80.0579 646.48 83.1362L651.401 74.4306C646.13 71.4516 641.961 68.8426 638.843 66.5994C635.642 64.2968 633.86 62.5982 633.053 61.4987L624.989 67.4123ZM646.509 83.1522L658.857 90.025L663.72 81.2873L651.372 74.4146L646.509 83.1522ZM658.833 90.0116C677.69 100.643 688.754 109.392 693.233 116.144L701.566 110.616C695.639 101.682 682.629 91.9476 663.744 81.3007L658.833 90.0116ZM693.202 116.096C697.779 123.171 700.088 131.111 700.088 140.056H710.088C710.088 129.275 707.271 119.432 701.597 110.664L693.202 116.096ZM700.088 140.056C700.088 152.747 695.347 163.518 685.598 172.631L692.427 179.936C704.112 169.013 710.088 155.632 710.088 140.056H700.088ZM685.585 172.643C676.292 181.393 660.854 186.31 638.107 186.31V196.31C661.956 196.31 680.455 191.209 692.44 179.923L685.585 172.643ZM638.107 186.31C624.73 186.31 609.016 184.429 590.918 180.594L588.845 190.377C607.402 194.309 623.838 196.31 638.107 196.31V186.31ZM814.935 187H809.935V192H814.935V187ZM814.935 162.887H819.935V145.5L810.699 160.231L814.935 162.887ZM745.276 180.244L741.924 183.954L741.945 183.973L741.966 183.992L745.276 180.244ZM734.442 59.0971V54.0971H729.442V59.0971H734.442ZM768.923 59.0971H773.923V54.0971H768.923V59.0971ZM770.786 155.199L766.314 157.435L766.342 157.49L766.371 157.545L770.786 155.199ZM776.028 160.907L773.433 165.181L773.522 165.235L773.613 165.285L776.028 160.907ZM798.277 158.111L800.869 162.387L800.892 162.373L800.916 162.358L798.277 158.111ZM814.935 139.59L819.122 142.322L819.935 141.077V139.59H814.935ZM814.935 59.0971V54.0971H809.935V59.0971H814.935ZM849.415 59.0971H854.415V54.0971H849.415V59.0971ZM849.415 187V192H854.415V187H849.415ZM819.935 187V162.887H809.935V187H819.935ZM810.699 160.231C804.867 169.532 798.602 175.763 792.036 179.351L796.831 188.126C805.33 183.482 812.732 175.812 819.171 165.543L810.699 160.231ZM792.036 179.351C785.167 183.104 778.297 184.912 771.369 184.912V194.912C780.127 194.912 788.634 192.605 796.831 188.126L792.036 179.351ZM771.369 184.912C762.443 184.912 754.935 182.103 748.585 176.496L741.966 183.992C750.216 191.276 760.103 194.912 771.369 194.912V184.912ZM748.627 176.533C742.845 171.311 739.442 162.686 739.442 149.491H729.442C729.442 164.254 733.261 176.13 741.924 183.954L748.627 176.533ZM739.442 149.491V59.0971H729.442V149.491H739.442ZM734.442 64.0971H768.923V54.0971H734.442V64.0971ZM763.923 59.0971V140.988H773.923V59.0971H763.923ZM763.923 140.988C763.923 144.61 764.082 147.775 764.431 150.433C764.77 153.016 765.327 155.461 766.314 157.435L775.258 152.963C775.003 152.452 774.628 151.286 774.346 149.132C774.073 147.053 773.923 144.354 773.923 140.988H763.923ZM766.371 157.545C768.067 160.738 770.41 163.345 773.433 165.181L778.623 156.633C777.298 155.828 776.146 154.63 775.202 152.853L766.371 157.545ZM773.613 165.285C776.647 166.959 779.97 167.771 783.483 167.771V157.771C781.561 157.771 779.914 157.34 778.444 156.529L773.613 165.285ZM783.483 167.771C789.347 167.771 795.167 165.843 800.869 162.387L795.686 153.835C791.137 156.592 787.094 157.771 783.483 157.771V167.771ZM800.916 162.358C806.98 158.591 813.017 151.679 819.122 142.322L810.748 136.857C804.894 145.828 799.826 151.263 795.639 153.864L800.916 162.358ZM819.935 139.59V59.0971H809.935V139.59H819.935ZM814.935 64.0971H849.415V54.0971H814.935V64.0971ZM844.415 59.0971V187H854.415V59.0971H844.415ZM849.415 182H814.935V192H849.415V182ZM892.632 187H887.632V192H892.632V187ZM892.632 3.06673V-1.93327H887.632V3.06673H892.632ZM927.112 3.06673H932.112V-1.93327H927.112V3.06673ZM927.112 83.2099H922.112L931.6 85.415L927.112 83.2099ZM944.236 62.9411L946.944 67.144L944.236 62.9411ZM1003.99 169.76L999.93 166.847L1003.99 169.76ZM950.293 188.281L951.57 183.447L951.527 183.436L951.484 183.425L950.293 188.281ZM938.644 183.622L936.113 187.934L936.133 187.946L936.154 187.957L938.644 183.622ZM927.112 174.07L930.713 170.6L925.785 165.487L922.632 171.85L927.112 174.07ZM920.705 187V192H923.808L925.186 189.22L920.705 187ZM927.112 153.568H922.112V155.487L923.396 156.913L927.112 153.568ZM974.872 153.918L979.336 156.169L979.34 156.161L979.344 156.154L974.872 153.918ZM975.105 93.6938L970.86 96.3353L970.87 96.3522L970.881 96.369L975.105 93.6938ZM941.207 88.5683L944.053 92.6793L944.06 92.6748L944.066 92.6703L941.207 88.5683ZM927.112 102.896L923.051 99.9802L922.112 101.287V102.896H927.112ZM897.632 187V3.06673H887.632V187H897.632ZM892.632 8.06673H927.112V-1.93327H892.632V8.06673ZM922.112 3.06673V83.2099H932.112V3.06673H922.112ZM931.6 85.415C935.709 77.0525 940.863 71.0631 946.944 67.144L941.527 58.7383C933.63 63.8275 927.368 71.3507 922.625 81.0048L931.6 85.415ZM946.944 67.144C953.018 63.2301 960.28 61.1849 968.931 61.1849V51.1849C958.634 51.1849 949.432 53.6439 941.527 58.7383L946.944 67.144ZM968.931 61.1849C983.272 61.1849 993.904 66.3822 1001.49 76.6322L1009.53 70.6837C999.872 57.6363 986.119 51.1849 968.931 51.1849V61.1849ZM1001.49 76.6322C1009.3 87.1888 1013.44 101.347 1013.44 119.554H1023.44C1023.44 99.8633 1018.96 83.4246 1009.53 70.6837L1001.49 76.6322ZM1013.44 119.554C1013.44 138.771 1008.83 154.428 999.93 166.847L1008.06 172.673C1018.42 158.222 1023.44 140.409 1023.44 119.554H1013.44ZM999.93 166.847C991.286 178.907 979.399 184.912 963.689 184.912V194.912C982.459 194.912 997.442 187.483 1008.06 172.673L999.93 166.847ZM963.689 184.912C959.25 184.912 955.219 184.411 951.57 183.447L949.016 193.116C953.599 194.326 958.499 194.912 963.689 194.912V184.912ZM951.484 183.425C947.821 182.527 944.376 181.148 941.135 179.286L936.154 187.957C940.213 190.289 944.534 192.017 949.102 193.137L951.484 183.425ZM941.175 179.31C938.125 177.52 934.636 174.672 930.713 170.6L923.512 177.539C927.82 182.01 932.019 185.531 936.113 187.934L941.175 179.31ZM922.632 171.85L916.225 184.78L925.186 189.22L931.592 176.29L922.632 171.85ZM920.705 182H892.632V192H920.705V182ZM923.396 156.913C928.518 162.605 933.64 166.846 938.789 169.186L942.927 160.083C939.533 158.54 935.491 155.404 930.829 150.223L923.396 156.913ZM938.789 169.186C943.67 171.405 948.722 172.547 953.904 172.547V162.547C950.234 162.547 946.588 161.747 942.927 160.083L938.789 169.186ZM953.904 172.547C959.443 172.547 964.513 171.195 968.919 168.332C973.302 165.482 976.735 161.328 979.336 156.169L970.407 151.666C968.427 155.594 966.074 158.253 963.469 159.947C960.885 161.626 957.762 162.547 953.904 162.547V172.547ZM979.344 156.154C984.322 146.197 986.745 134.928 986.745 122.466H976.745C976.745 133.612 974.585 143.311 970.4 151.682L979.344 156.154ZM986.745 122.466C986.745 109.748 984.449 99.1021 979.329 91.0185L970.881 96.369C974.614 102.264 976.745 110.799 976.745 122.466H986.745ZM979.35 91.0522C974.11 82.6307 966.311 78.2099 956.467 78.2099V88.2099C962.776 88.2099 967.402 90.7784 970.86 96.3353L979.35 91.0522ZM956.467 78.2099C950.176 78.2099 944.111 80.4498 938.348 84.4663L944.066 92.6703C948.554 89.5423 952.662 88.2099 956.467 88.2099V78.2099ZM938.361 84.4574C932.754 88.3392 927.664 93.5545 923.051 99.9802L931.174 105.812C935.258 100.123 939.565 95.7867 944.053 92.6793L938.361 84.4574ZM922.112 102.896V153.568H932.112V102.896H922.112ZM1050.82 187H1045.82V192H1050.82V187ZM1050.82 59.0971V54.0971H1045.82V59.0971H1050.82ZM1083.9 59.0971H1088.9V54.0971H1083.9V59.0971ZM1083.9 83.2099H1078.9V102.372L1088.27 85.6529L1083.9 83.2099ZM1143.2 59.0971L1141.25 63.7008L1141.28 63.7149L1141.31 63.7285L1143.2 59.0971ZM1155.31 68.0666L1151.5 71.3027L1151.53 71.3414L1151.57 71.3794L1155.31 68.0666ZM1162.18 83.2099L1157.25 84.0319L1159.34 96.5721L1166.35 85.9679L1162.18 83.2099ZM1181.52 62.4752L1178.84 58.2548L1178.83 58.262L1178.82 58.2693L1181.52 62.4752ZM1230.79 65.3874L1227.35 69.0091L1227.37 69.0304L1227.39 69.0513L1230.79 65.3874ZM1240.58 187V192H1245.58V187H1240.58ZM1207.5 187H1202.5V192H1207.5V187ZM1202.84 87.6364L1199.45 91.3104L1199.47 91.3318L1199.49 91.3529L1202.84 87.6364ZM1177.09 89.0343L1174.15 84.9906L1174.14 85.0013L1174.12 85.0121L1177.09 89.0343ZM1162.18 105.808L1158 103.065L1157.18 104.314V105.808H1162.18ZM1162.18 187V192H1167.18V187H1162.18ZM1129.1 187H1124.1V192H1129.1V187ZM1124.56 87.6364L1121.07 91.2188L1121.09 91.2414L1121.12 91.2637L1124.56 87.6364ZM1098.7 88.9178L1095.73 84.8956L1095.71 84.9066L1095.7 84.9178L1098.7 88.9178ZM1083.9 105.808L1079.71 103.085L1078.9 104.327V105.808H1083.9ZM1083.9 187V192H1088.9V187H1083.9ZM1055.82 187V59.0971H1045.82V187H1055.82ZM1050.82 64.0971H1083.9V54.0971H1050.82V64.0971ZM1078.9 59.0971V83.2099H1088.9V59.0971H1078.9ZM1088.27 85.6529C1092.27 78.5062 1097.49 72.6123 1103.96 67.9206L1098.09 59.8255C1090.43 65.3846 1084.24 72.382 1079.54 80.7669L1088.27 85.6529ZM1103.96 67.9206C1110.03 63.5169 1117.62 61.1849 1127 61.1849V51.1849C1115.89 51.1849 1106.15 53.9783 1098.09 59.8255L1103.96 67.9206ZM1127 61.1849C1132.71 61.1849 1137.41 62.0771 1141.25 63.7008L1145.15 54.4933C1139.81 52.2341 1133.73 51.1849 1127 51.1849V61.1849ZM1141.31 63.7285C1145.08 65.262 1148.48 67.743 1151.5 71.3027L1159.12 64.8304C1155.16 60.1584 1150.47 56.6597 1145.08 54.4656L1141.31 63.7285ZM1151.57 71.3794C1154.43 74.6214 1156.37 78.768 1157.25 84.0319L1167.12 82.3879C1165.97 75.5371 1163.33 69.5882 1159.06 64.7537L1151.57 71.3794ZM1166.35 85.9679C1172.51 76.6597 1178.5 70.3618 1184.22 66.6811L1178.82 58.2693C1171.5 62.9757 1164.59 70.501 1158.01 80.452L1166.35 85.9679ZM1184.2 66.6955C1189.85 63.1058 1196.88 61.1849 1205.52 61.1849V51.1849C1195.36 51.1849 1186.39 53.4575 1178.84 58.2548L1184.2 66.6955ZM1205.52 61.1849C1214.87 61.1849 1221.99 63.9074 1227.35 69.0091L1234.24 61.7656C1226.71 54.5974 1216.97 51.1849 1205.52 51.1849V61.1849ZM1227.39 69.0513C1232.46 73.7612 1235.58 81.932 1235.58 94.8586H1245.58C1245.58 80.6049 1242.17 69.1282 1234.2 61.7234L1227.39 69.0513ZM1235.58 94.8586V187H1245.58V94.8586H1235.58ZM1240.58 182H1207.5V192H1240.58V182ZM1212.5 187V106.158H1202.5V187H1212.5ZM1212.5 106.158C1212.5 101.154 1212.09 96.7748 1211.18 93.1437C1210.28 89.5641 1208.77 86.2457 1206.18 83.92L1199.49 91.3529C1200.01 91.8228 1200.83 92.9892 1201.48 95.5834C1202.12 98.1262 1202.5 101.61 1202.5 106.158H1212.5ZM1206.23 83.9624C1202.36 80.3914 1197.76 78.4429 1192.59 78.4429V88.4429C1195.03 88.4429 1197.26 89.29 1199.45 91.3104L1206.23 83.9624ZM1192.59 78.4429C1186.11 78.4429 1179.94 80.7797 1174.15 84.9906L1180.03 93.078C1184.5 89.8337 1188.65 88.4429 1192.59 88.4429V78.4429ZM1174.12 85.0121C1168.45 89.2053 1163.09 95.3068 1158 103.065L1166.36 108.552C1171.06 101.4 1175.65 96.3185 1180.06 93.0564L1174.12 85.0121ZM1157.18 105.808V187H1167.18V105.808H1157.18ZM1162.18 182H1129.1V192H1162.18V182ZM1134.1 187V106.158H1124.1V187H1134.1ZM1134.1 106.158C1134.1 101.195 1133.71 96.8473 1132.82 93.2307C1131.95 89.6651 1130.48 86.3658 1128 84.0091L1121.12 91.2637C1121.66 91.7804 1122.47 93.0047 1123.11 95.6129C1123.74 98.1701 1124.1 101.647 1124.1 106.158H1134.1ZM1128.05 84.0541C1124.14 80.2535 1119.31 78.3264 1113.84 78.3264V88.3264C1116.76 88.3264 1119.07 89.2727 1121.07 91.2188L1128.05 84.0541ZM1113.84 78.3264C1107.49 78.3264 1101.42 80.6896 1095.73 84.8956L1101.67 92.94C1106.07 89.6908 1110.1 88.3264 1113.84 88.3264V78.3264ZM1095.7 84.9178C1090.1 89.1169 1084.79 95.2602 1079.71 103.085L1088.1 108.532C1092.8 101.291 1097.36 96.1738 1101.7 92.9178L1095.7 84.9178ZM1078.9 105.808V187H1088.9V105.808H1078.9ZM1083.9 182H1050.82V192H1083.9V182ZM1282.17 187H1277.17V192H1282.17V187ZM1282.17 59.0971V54.0971H1277.17V59.0971H1282.17ZM1316.65 59.0971H1321.65V54.0971H1316.65V59.0971ZM1316.65 187V192H1321.65V187H1316.65ZM1282.17 37.5469H1277.17V42.5469H1282.17V37.5469ZM1282.17 8.7746V3.7746H1277.17V8.7746H1282.17ZM1316.65 8.7746H1321.65V3.7746H1316.65V8.7746ZM1316.65 37.5469V42.5469H1321.65V37.5469H1316.65ZM1287.17 187V59.0971H1277.17V187H1287.17ZM1282.17 64.0971H1316.65V54.0971H1282.17V64.0971ZM1311.65 59.0971V187H1321.65V59.0971H1311.65ZM1316.65 182H1282.17V192H1316.65V182ZM1287.17 37.5469V8.7746H1277.17V37.5469H1287.17ZM1282.17 13.7746H1316.65V3.7746H1282.17V13.7746ZM1311.65 8.7746V37.5469H1321.65V8.7746H1311.65ZM1316.65 32.5469H1282.17V42.5469H1316.65V32.5469ZM1425.68 186.301L1427.08 191.1L1430.68 190.048V186.301H1425.68ZM1380.01 185.136L1377.73 189.586L1380.01 185.136ZM1366.04 172.206L1361.68 174.66L1361.69 174.674L1361.69 174.687L1366.04 172.206ZM1361.38 80.6472H1366.38V75.6472H1361.38V80.6472ZM1347.05 80.6472H1342.05V85.6472H1347.05V80.6472ZM1347.05 59.0971V54.0971H1342.05V59.0971H1347.05ZM1361.38 59.0971V64.0971H1366.38V59.0971H1361.38ZM1361.38 37.5469L1360.81 32.5796L1356.38 33.0884V37.5469H1361.38ZM1395.86 33.5864H1400.86V27.9792L1395.29 28.619L1395.86 33.5864ZM1395.86 59.0971H1390.86V64.0971H1395.86V59.0971ZM1423.23 59.0971H1428.23V54.0971H1423.23V59.0971ZM1423.23 80.6472V85.6472H1428.23V80.6472H1423.23ZM1395.86 80.6472V75.6472H1390.86V80.6472H1395.86ZM1400.75 162.188L1397.21 165.724L1397.23 165.745L1397.26 165.766L1400.75 162.188ZM1425.68 165.333H1430.68V158.841L1424.4 160.499L1425.68 165.333ZM1424.27 181.502C1416.19 183.865 1410.25 184.912 1406.22 184.912V194.912C1411.67 194.912 1418.7 193.552 1427.08 191.1L1424.27 181.502ZM1406.22 184.912C1395.32 184.912 1387.5 183.353 1382.29 180.687L1377.73 189.586C1384.96 193.288 1394.6 194.912 1406.22 194.912V184.912ZM1382.29 180.687C1376.84 177.892 1372.95 174.224 1370.38 169.725L1361.69 174.687C1365.34 181.06 1370.76 186.012 1377.73 189.586L1382.29 180.687ZM1370.39 169.752C1367.9 165.336 1366.38 158.273 1366.38 147.977H1356.38C1356.38 158.959 1357.95 168.049 1361.68 174.66L1370.39 169.752ZM1366.38 147.977V80.6472H1356.38V147.977H1366.38ZM1361.38 75.6472H1347.05V85.6472H1361.38V75.6472ZM1352.05 80.6472V59.0971H1342.05V80.6472H1352.05ZM1347.05 64.0971H1361.38V54.0971H1347.05V64.0971ZM1366.38 59.0971V37.5469H1356.38V59.0971H1366.38ZM1361.95 42.5143L1396.43 38.5537L1395.29 28.619L1360.81 32.5796L1361.95 42.5143ZM1390.86 33.5864V59.0971H1400.86V33.5864H1390.86ZM1395.86 64.0971H1423.23V54.0971H1395.86V64.0971ZM1418.23 59.0971V80.6472H1428.23V59.0971H1418.23ZM1423.23 75.6472H1395.86V85.6472H1423.23V75.6472ZM1390.86 80.6472V143.434H1400.86V80.6472H1390.86ZM1390.86 143.434C1390.86 152.848 1392.43 160.941 1397.21 165.724L1404.28 158.653C1402.54 156.912 1400.86 152.503 1400.86 143.434H1390.86ZM1397.26 165.766C1401.76 170.162 1407.99 171.964 1415.08 171.964V161.964C1409.59 161.964 1406.26 160.582 1404.24 158.61L1397.26 165.766ZM1415.08 171.964C1418.6 171.964 1422.59 171.321 1426.95 170.168L1424.4 160.499C1420.53 161.52 1417.45 161.964 1415.08 161.964V171.964ZM1420.68 165.333V186.301H1430.68V165.333H1420.68ZM1522.36 186.301L1523.77 191.1L1527.36 190.048V186.301H1522.36ZM1476.7 185.136L1474.42 189.586L1476.7 185.136ZM1462.72 172.206L1458.36 174.66L1458.37 174.674L1458.38 174.687L1462.72 172.206ZM1458.06 80.6472H1463.06V75.6472H1458.06V80.6472ZM1443.73 80.6472H1438.73V85.6472H1443.73V80.6472ZM1443.73 59.0971V54.0971H1438.73V59.0971H1443.73ZM1458.06 59.0971V64.0971H1463.06V59.0971H1458.06ZM1458.06 37.5469L1457.49 32.5796L1453.06 33.0884V37.5469H1458.06ZM1492.54 33.5864H1497.54V27.9792L1491.97 28.619L1492.54 33.5864ZM1492.54 59.0971H1487.54V64.0971H1492.54V59.0971ZM1519.92 59.0971H1524.92V54.0971H1519.92V59.0971ZM1519.92 80.6472V85.6472H1524.92V80.6472H1519.92ZM1492.54 80.6472V75.6472H1487.54V80.6472H1492.54ZM1497.43 162.188L1493.9 165.724L1493.92 165.745L1493.94 165.766L1497.43 162.188ZM1522.36 165.333H1527.36V158.841L1521.08 160.499L1522.36 165.333ZM1520.96 181.502C1512.88 183.865 1506.93 184.912 1502.91 184.912V194.912C1508.36 194.912 1515.38 193.552 1523.77 191.1L1520.96 181.502ZM1502.91 184.912C1492.01 184.912 1484.18 183.353 1478.98 180.687L1474.42 189.586C1481.64 193.288 1491.29 194.912 1502.91 194.912V184.912ZM1478.98 180.687C1473.53 177.892 1469.63 174.224 1467.06 169.725L1458.38 174.687C1462.02 181.06 1467.44 186.012 1474.42 189.586L1478.98 180.687ZM1467.08 169.752C1464.59 165.336 1463.06 158.273 1463.06 147.977H1453.06C1453.06 158.959 1454.64 168.049 1458.36 174.66L1467.08 169.752ZM1463.06 147.977V80.6472H1453.06V147.977H1463.06ZM1458.06 75.6472H1443.73V85.6472H1458.06V75.6472ZM1448.73 80.6472V59.0971H1438.73V80.6472H1448.73ZM1443.73 64.0971H1458.06V54.0971H1443.73V64.0971ZM1463.06 59.0971V37.5469H1453.06V59.0971H1463.06ZM1458.63 42.5143L1493.11 38.5537L1491.97 28.619L1457.49 32.5796L1458.63 42.5143ZM1487.54 33.5864V59.0971H1497.54V33.5864H1487.54ZM1492.54 64.0971H1519.92V54.0971H1492.54V64.0971ZM1514.92 59.0971V80.6472H1524.92V59.0971H1514.92ZM1519.92 75.6472H1492.54V85.6472H1519.92V75.6472ZM1487.54 80.6472V143.434H1497.54V80.6472H1487.54ZM1487.54 143.434C1487.54 152.848 1489.12 160.941 1493.9 165.724L1500.97 158.653C1499.23 156.912 1497.54 152.503 1497.54 143.434H1487.54ZM1493.94 165.766C1498.44 170.162 1504.67 171.964 1511.76 171.964V161.964C1506.27 161.964 1502.95 160.582 1500.93 158.61L1493.94 165.766ZM1511.76 171.964C1515.29 171.964 1519.27 171.321 1523.64 170.168L1521.08 160.499C1517.22 161.52 1514.14 161.964 1511.76 161.964V171.964ZM1517.36 165.333V186.301H1527.36V165.333H1517.36ZM1657.25 182.69L1658.66 187.487L1662.25 186.432V182.69H1657.25ZM1574.08 182.224L1571.85 186.696L1571.87 186.706L1571.89 186.716L1574.08 182.224ZM1549.97 157.995L1545.51 160.256L1545.52 160.275L1545.53 160.294L1549.97 157.995ZM1548.69 89.0343L1544.17 86.8953L1544.16 86.9028L1544.16 86.9103L1548.69 89.0343ZM1569.54 65.0379L1572.24 69.2473L1572.25 69.2415L1569.54 65.0379ZM1657.25 129.921V134.921H1662.25V129.921H1657.25ZM1577.93 129.921V124.921H1572.46L1572.95 130.37L1577.93 129.921ZM1583.75 150.307L1579.51 152.957L1579.53 152.98L1579.54 153.004L1583.75 150.307ZM1596.56 162.188L1594.15 166.568L1594.18 166.581L1594.2 166.595L1596.56 162.188ZM1657.25 158.461H1662.25V151.286L1655.52 153.77L1657.25 158.461ZM1577.46 110.468L1572.49 109.963L1571.93 115.468H1577.46V110.468ZM1623.36 110.468V115.468H1628.36V110.468H1623.36ZM1617.42 85.3067L1613.45 88.3552L1613.47 88.3743L1613.48 88.3931L1617.42 85.3067ZM1585.61 86.1221L1589.54 89.2185L1589.55 89.2052L1589.56 89.1918L1585.61 86.1221ZM1655.84 177.893C1639.84 182.595 1624.79 184.912 1610.66 184.912V194.912C1625.88 194.912 1641.89 192.415 1658.66 187.487L1655.84 177.893ZM1610.66 184.912C1597.38 184.912 1585.96 182.465 1576.28 177.732L1571.89 186.716C1583.17 192.234 1596.14 194.912 1610.66 194.912V184.912ZM1576.32 177.752C1566.92 173.051 1559.62 165.766 1554.41 155.696L1545.53 160.294C1551.65 172.123 1560.44 180.991 1571.85 186.696L1576.32 177.752ZM1554.43 155.734C1549.21 145.437 1546.58 134.257 1546.58 122.117H1536.58C1536.58 135.759 1539.55 148.497 1545.51 160.256L1554.43 155.734ZM1546.58 122.117C1546.58 110.837 1548.81 100.542 1553.21 91.1582L1544.16 86.9103C1539.09 97.7178 1536.58 109.477 1536.58 122.117H1546.58ZM1553.21 91.1732C1557.64 81.8091 1563.98 74.5436 1572.24 69.2473L1566.84 60.8285C1556.93 67.181 1549.37 75.913 1544.17 86.8953L1553.21 91.1732ZM1572.25 69.2415C1580.44 63.9658 1590.71 61.1849 1603.32 61.1849V51.1849C1589.22 51.1849 1576.97 54.306 1566.83 60.8343L1572.25 69.2415ZM1603.32 61.1849C1618.55 61.1849 1630.24 65.9694 1638.93 75.2193L1646.22 68.369C1635.35 56.8065 1620.86 51.1849 1603.32 51.1849V61.1849ZM1638.93 75.2193C1647.31 84.1322 1652.25 101.767 1652.25 129.921H1662.25C1662.25 101.385 1657.41 80.2685 1646.22 68.369L1638.93 75.2193ZM1657.25 124.921H1577.93V134.921H1657.25V124.921ZM1572.95 130.37C1573.76 139.428 1575.84 147.08 1579.51 152.957L1587.99 147.657C1585.45 143.593 1583.64 137.655 1582.91 129.473L1572.95 130.37ZM1579.54 153.004C1583.19 158.702 1588.09 163.23 1594.15 166.568L1598.98 157.808C1594.32 155.244 1590.68 151.851 1587.96 147.609L1579.54 153.004ZM1594.2 166.595C1600.55 170.001 1608.65 171.498 1618.11 171.498V161.498C1609.56 161.498 1603.29 160.123 1598.93 157.782L1594.2 166.595ZM1618.11 171.498C1630.44 171.498 1644.08 168.65 1658.98 163.151L1655.52 153.77C1641.38 158.989 1628.93 161.498 1618.11 161.498V171.498ZM1652.25 158.461V182.69H1662.25V158.461H1652.25ZM1577.46 115.468H1623.36V105.468H1577.46V115.468ZM1628.36 110.468C1628.36 98.4356 1626.37 88.6253 1621.35 82.2202L1613.48 88.3931C1616.38 92.0836 1618.36 99.0475 1618.36 110.468H1628.36ZM1621.38 82.2581C1616.58 76.0161 1610.08 72.735 1602.27 72.735V82.735C1606.89 82.735 1610.49 84.5018 1613.45 88.3552L1621.38 82.2581ZM1602.27 72.735C1593.89 72.735 1586.91 76.3116 1581.67 83.0524L1589.56 89.1918C1593.02 84.7498 1597.14 82.735 1602.27 82.735V72.735ZM1581.69 83.0257C1576.52 89.5848 1573.62 98.768 1572.49 109.963L1582.43 110.973C1583.47 100.734 1586.02 93.6869 1589.54 89.2185L1581.69 83.0257ZM1773.39 187H1768.39V192H1773.39V187ZM1773.39 162.887H1778.39L1768.9 160.682L1773.39 162.887ZM1756.27 183.156L1753.56 178.953L1753.55 178.96L1753.54 178.967L1756.27 183.156ZM1695.11 172.556L1691.09 175.53L1691.1 175.536L1691.1 175.543L1695.11 172.556ZM1696.63 76.3372L1700.68 79.2612L1700.69 79.25L1696.63 76.3372ZM1749.74 57.6992L1748.49 62.5383L1748.53 62.5502L1748.58 62.5612L1749.74 57.6992ZM1773.39 72.0271L1769.92 75.6211L1778.39 83.8193V72.0271H1773.39ZM1773.39 3.06673V-1.93327H1768.39V3.06673H1773.39ZM1807.99 3.06673H1812.99V-1.93327H1807.99V3.06673ZM1807.99 187V192H1812.99V187H1807.99ZM1773.39 92.5289H1778.39V90.633L1777.13 89.2137L1773.39 92.5289ZM1725.75 92.0629L1721.31 89.7658L1721.3 89.7732L1721.3 89.7806L1725.75 92.0629ZM1725.28 152.287L1720.99 154.852L1721.01 154.88L1721.02 154.907L1725.28 152.287ZM1759.41 157.529L1762.3 161.61L1762.31 161.606L1762.31 161.602L1759.41 157.529ZM1773.39 143.201L1777.47 146.097L1778.39 144.796V143.201H1773.39ZM1778.39 187V162.887H1768.39V187H1778.39ZM1768.9 160.682C1764.79 169.045 1759.64 175.034 1753.56 178.953L1758.98 187.359C1766.87 182.27 1773.14 174.746 1777.88 165.092L1768.9 160.682ZM1753.54 178.967C1747.56 182.862 1740.31 184.912 1731.57 184.912V194.912C1741.94 194.912 1751.15 192.458 1759 187.345L1753.54 178.967ZM1731.57 184.912C1717.31 184.912 1706.71 179.75 1699.12 169.569L1691.1 175.543C1700.76 188.503 1714.47 194.912 1731.57 194.912V184.912ZM1699.13 169.581C1691.32 159.028 1687.18 144.833 1687.18 126.543H1677.18C1677.18 146.306 1681.66 162.786 1691.09 175.53L1699.13 169.581ZM1687.18 126.543C1687.18 107.243 1691.79 91.5932 1700.68 79.2612L1692.57 73.4132C1682.2 87.7955 1677.18 105.617 1677.18 126.543H1687.18ZM1700.69 79.25C1709.33 67.1904 1721.22 61.1849 1736.93 61.1849V51.1849C1718.16 51.1849 1703.18 58.6142 1692.56 73.4243L1700.69 79.25ZM1736.93 61.1849C1741.23 61.1849 1745.07 61.6511 1748.49 62.5383L1751 52.8601C1746.65 51.7282 1741.95 51.1849 1736.93 51.1849V61.1849ZM1748.58 62.5612C1752 63.3814 1755.29 64.6822 1758.47 66.4785L1763.39 57.7729C1759.42 55.5311 1755.26 53.8808 1750.91 52.8373L1748.58 62.5612ZM1758.47 66.4785C1761.52 68.202 1765.32 71.1793 1769.92 75.6211L1776.87 68.4332C1771.99 63.7113 1767.48 60.0877 1763.39 57.7729L1758.47 66.4785ZM1778.39 72.0271V3.06673H1768.39V72.0271H1778.39ZM1773.39 8.06673H1807.99V-1.93327H1773.39V8.06673ZM1802.99 3.06673V187H1812.99V3.06673H1802.99ZM1807.99 182H1773.39V192H1807.99V182ZM1777.13 89.2137C1772.08 83.5108 1766.99 79.2575 1761.83 76.9108L1757.69 86.0144C1761.07 87.5506 1765.07 90.6748 1769.65 95.8441L1777.13 89.2137ZM1761.83 76.9108C1756.95 74.692 1751.9 73.5504 1746.72 73.5504V83.5504C1750.39 83.5504 1754.03 84.3503 1757.69 86.0144L1761.83 76.9108ZM1746.72 73.5504C1741.22 73.5504 1736.17 74.8919 1731.78 77.7257C1727.4 80.5445 1723.95 84.6557 1721.31 89.7658L1730.19 94.3601C1732.21 90.4619 1734.58 87.8167 1737.19 86.1314C1739.79 84.461 1742.9 83.5504 1746.72 83.5504V73.5504ZM1721.3 89.7806C1716.29 99.5492 1713.88 110.885 1713.88 123.631H1723.88C1723.88 112.147 1726.05 102.438 1730.2 94.3453L1721.3 89.7806ZM1713.88 123.631C1713.88 136.121 1716.1 146.665 1720.99 154.852L1729.57 149.721C1725.93 143.619 1723.88 135.059 1723.88 123.631H1713.88ZM1721.02 154.907C1726.26 163.421 1734.11 167.887 1744.04 167.887V157.887C1737.66 157.887 1733 155.286 1729.54 149.666L1721.02 154.907ZM1744.04 167.887C1750.46 167.887 1756.57 165.665 1762.3 161.61L1756.52 153.447C1752.16 156.537 1748.02 157.887 1744.04 157.887V167.887ZM1762.31 161.602C1767.96 157.583 1773 152.387 1777.47 146.097L1769.32 140.305C1765.4 145.819 1761.12 150.175 1756.51 153.456L1762.31 161.602ZM1778.39 143.201V92.5289H1768.39V143.201H1778.39Z" fill="#DCA413" mask="url(#path-5-outside-3_0_1)"/>
</svg>
