<svg width="4069" height="388" viewBox="0 0 4069 388" fill="none" xmlns="http://www.w3.org/2000/svg">
<path d="M1597.79 386V314.74H1649.32V323.149H1607.22V344.974H1646.65V353.335H1607.22V377.591H1650.97V386H1597.79ZM1663.9 386V314.74H1673.57L1711 370.688V314.74H1720.04V386H1710.37L1672.94 330.003V386H1663.9ZM1736.13 386V314.74H1787.66V323.149H1745.56V344.974H1784.99V353.335H1745.56V377.591H1789.31V386H1736.13ZM1802.48 386V314.74H1834.08C1840.43 314.74 1845.26 315.388 1848.56 316.684C1851.87 317.948 1854.51 320.2 1856.49 323.441C1858.46 326.682 1859.45 330.262 1859.45 334.183C1859.45 339.239 1857.82 343.5 1854.54 346.967C1851.27 350.435 1846.22 352.638 1839.38 353.578C1841.87 354.777 1843.77 355.96 1845.07 357.127C1847.82 359.654 1850.43 362.814 1852.89 366.605L1865.29 386H1853.43L1844 371.174C1841.24 366.897 1838.97 363.624 1837.19 361.356C1835.41 359.087 1833.8 357.499 1832.38 356.592C1830.98 355.685 1829.56 355.053 1828.1 354.696C1827.03 354.469 1825.28 354.356 1822.85 354.356H1811.91V386H1802.48ZM1811.91 346.19H1832.18C1836.49 346.19 1839.86 345.752 1842.29 344.877C1844.72 343.97 1846.57 342.544 1847.84 340.6C1849.1 338.623 1849.73 336.484 1849.73 334.183C1849.73 330.813 1848.5 328.043 1846.04 325.871C1843.61 323.7 1839.75 322.615 1834.47 322.615H1811.91V346.19ZM1907.62 358.05V349.69L1937.81 349.641V376.084C1933.18 379.778 1928.4 382.565 1923.47 384.445C1918.54 386.292 1913.49 387.215 1908.3 387.215C1901.31 387.215 1894.94 385.725 1889.2 382.743C1883.5 379.73 1879.19 375.387 1876.27 369.716C1873.36 364.045 1871.9 357.71 1871.9 350.71C1871.9 343.775 1873.34 337.311 1876.22 331.316C1879.14 325.288 1883.32 320.816 1888.76 317.9C1894.21 314.983 1900.48 313.525 1907.58 313.525C1912.73 313.525 1917.38 314.367 1921.53 316.052C1925.71 317.705 1928.98 320.022 1931.35 323.003C1933.71 325.985 1935.51 329.873 1936.74 334.669L1928.23 337.003C1927.16 333.373 1925.84 330.522 1924.25 328.448C1922.66 326.374 1920.39 324.721 1917.44 323.49C1914.49 322.226 1911.22 321.594 1907.62 321.594C1903.31 321.594 1899.59 322.258 1896.44 323.587C1893.3 324.883 1890.76 326.6 1888.81 328.739C1886.9 330.878 1885.41 333.227 1884.34 335.787C1882.53 340.195 1881.62 344.974 1881.62 350.127C1881.62 356.478 1882.7 361.793 1884.88 366.071C1887.08 370.348 1890.27 373.524 1894.45 375.598C1898.63 377.672 1903.07 378.709 1907.77 378.709C1911.85 378.709 1915.84 377.931 1919.73 376.376C1923.62 374.788 1926.57 373.103 1928.57 371.32V358.05H1907.62ZM1971.84 386V355.814L1944.37 314.74H1955.84L1969.89 336.225C1972.48 340.243 1974.9 344.262 1977.13 348.28C1979.27 344.553 1981.87 340.357 1984.91 335.69L1998.72 314.74H2009.7L1981.27 355.814V386H1971.84Z" fill="#1B1B1B"/>
<path d="M2088.21 386V314.74H2097.64V377.591H2132.74V386H2088.21ZM2154.76 386V323.149H2131.28V314.74H2187.76V323.149H2164.19V386H2154.76ZM2197.48 386V314.74H2222.03C2227.57 314.74 2231.8 315.08 2234.72 315.761C2238.8 316.701 2242.28 318.402 2245.17 320.865C2248.93 324.04 2251.73 328.107 2253.58 333.065C2255.46 337.991 2256.4 343.63 2256.4 349.981C2256.4 355.393 2255.76 360.189 2254.5 364.369C2253.24 368.55 2251.62 372.017 2249.64 374.771C2247.66 377.494 2245.49 379.648 2243.13 381.236C2240.79 382.792 2237.96 383.975 2234.62 384.785C2231.31 385.595 2227.51 386 2223.2 386H2197.48ZM2206.91 377.591H2222.13C2226.83 377.591 2230.5 377.153 2233.16 376.278C2235.85 375.403 2237.99 374.172 2239.58 372.584C2241.81 370.348 2243.55 367.351 2244.78 363.592C2246.04 359.8 2246.67 355.215 2246.67 349.835C2246.67 342.382 2245.44 336.662 2242.98 332.677C2240.55 328.658 2237.58 325.969 2234.08 324.608C2231.56 323.635 2227.49 323.149 2221.88 323.149H2206.91V377.591Z" fill="#1B1B1B"/>
<path d="M2270.78 386V376.035H2280.75V386H2270.78Z" fill="black"/>
<path fill-rule="evenodd" clip-rule="evenodd" d="M487.261 242.151L695.545 0L807.828 0L554.947 294H542.469L542.576 294.101H407.652L192.456 92H327.381L487.261 242.151Z" fill="#DCA413"/>
<path fill-rule="evenodd" clip-rule="evenodd" d="M255.492 256.182L432.566 50H542.843L333.289 294H289.559H223.012H180.794L0 125H115.155L255.492 256.182Z" fill="#1B1B1B"/>
<path d="M1582.47 259.311V86.9096H1641.06C1655.2 86.9096 1665.64 88.5016 1672.4 91.6856C1679.23 94.7919 1684.55 99.4514 1688.36 105.664C1692.24 111.799 1694.18 118.322 1694.18 125.234C1694.18 133.932 1691.15 142.241 1685.09 150.162C1679.12 158.006 1668.36 164.374 1652.83 169.266C1665.18 172.295 1674.61 176.061 1681.13 180.565C1687.74 185.069 1692.71 190.428 1696.04 196.641C1699.46 202.853 1701.17 209.532 1701.17 216.676C1701.17 224.442 1699.15 231.703 1695.11 238.459C1691.15 245.138 1685.68 250.302 1678.69 253.952C1671.7 257.525 1660.94 259.311 1646.42 259.311H1582.47ZM1616.95 158.666H1624.75C1635.78 158.666 1644.01 155.987 1649.45 150.628C1654.96 145.192 1657.72 138.591 1657.72 130.825C1657.72 126.709 1656.9 123.137 1655.27 120.108C1653.64 117.08 1650.81 114.75 1646.77 113.119C1642.73 111.411 1634.97 110.557 1623.47 110.557H1616.95V158.666ZM1616.95 234.848H1623.94C1636.6 234.848 1645.22 234.033 1649.8 232.402C1654.38 230.771 1657.84 228.131 1660.17 224.481C1662.5 220.831 1663.66 216.793 1663.66 212.366C1663.66 203.824 1659.86 196.602 1652.25 190.7C1644.63 184.72 1634.97 181.73 1623.24 181.73H1616.95V234.848ZM1732.74 259.311V86.9096H1797.27C1810.47 86.9096 1820.53 88.5793 1827.44 91.9186C1834.35 95.1802 1839.79 100.189 1843.75 106.945C1847.79 113.624 1849.81 121.196 1849.81 129.66C1849.81 139.756 1846.9 149.308 1841.07 158.316C1835.25 167.247 1827.02 174.081 1816.38 178.818L1872.76 259.311H1829.07L1786.32 188.836H1766.52V259.311H1732.74ZM1766.52 165.189H1774.79C1789.62 165.189 1799.83 161.966 1805.43 155.521C1811.02 149.075 1813.81 141.775 1813.81 133.621C1813.81 126.554 1811.52 120.963 1806.94 116.847C1802.36 112.653 1793.04 110.557 1778.98 110.557H1766.52V165.189ZM1897.45 259.311V86.9096H1933.33V259.311H1897.45ZM2115.4 252.438C2107.87 255.777 2101.3 258.068 2095.71 259.311C2090.12 260.553 2083.75 261.563 2076.61 262.339C2069.54 263.194 2062.55 263.621 2055.64 263.621C2025.51 263.621 2003.03 255.117 1988.19 238.11C1973.36 221.103 1965.95 199.436 1965.95 173.11C1965.95 146.629 1973.32 124.923 1988.08 107.994C2002.91 91.0643 2026.17 82.5996 2057.85 82.5996C2076.57 82.5996 2095.21 84.8128 2113.77 89.2394V117.313C2104.84 114.206 2097.54 111.954 2091.87 110.557C2086.2 109.081 2080.8 107.994 2075.68 107.295C2070.63 106.596 2065.58 106.246 2060.53 106.246C2040.73 106.246 2026.36 112.614 2017.43 125.35C2008.5 138.086 2004.04 153.851 2004.04 172.644C2004.04 192.369 2009.08 208.328 2019.18 220.52C2029.35 232.713 2044.46 238.809 2064.49 238.809C2081.19 238.809 2098.16 234.538 2115.4 225.995V252.438ZM2146.73 259.311V86.9096H2181.21V170.547L2247.15 86.9096H2276.97L2217.21 164.257L2291.41 259.311H2246.56L2181.21 174.508V259.311H2146.73Z" fill="#DCA413"/>
<path d="M934.06 261L890.404 85.9017H924.832L956.776 214.031L986.945 85.9017H1017.35L1045.98 213.321L1079.58 85.9017H1104.78L1058.88 261H1024.09L997.119 140.916L968.843 261H934.06ZM1128.92 261V85.9017H1238.35V109.919H1165.36V158.78H1225.22V182.916H1165.36V236.155H1243.91V261H1128.92ZM1264.62 259.462V229.411C1278.1 235.09 1288.16 238.482 1294.79 239.586C1301.49 240.69 1307.64 241.242 1313.24 241.242C1323.34 241.242 1330.87 238.955 1335.84 234.38C1340.81 229.806 1343.29 224.324 1343.29 217.935C1343.29 213.045 1341.95 208.628 1339.27 204.685C1336.59 200.82 1329.81 195.811 1318.92 189.659L1307.21 183.152C1290.49 173.766 1279.17 165.09 1273.25 157.124C1267.26 149.158 1264.26 139.93 1264.26 129.44C1264.26 116.268 1269.23 104.989 1279.17 95.6031C1289.19 86.2172 1303.54 81.5242 1322.23 81.5242C1336.19 81.5242 1351.93 83.5355 1369.44 87.558V115.597C1351.61 108.893 1337.46 105.541 1326.97 105.541C1318.29 105.541 1311.67 107.473 1307.09 111.338C1302.59 115.124 1300.35 119.699 1300.35 125.062C1300.35 129.164 1301.69 132.989 1304.37 136.538C1306.97 140.088 1313.72 144.938 1324.6 151.09L1337.14 158.071C1356.31 168.876 1368.53 178.262 1373.82 186.228C1379.02 194.273 1381.63 203.304 1381.63 213.321C1381.63 227.676 1376.18 239.941 1365.3 250.116C1354.49 260.29 1337.26 265.377 1313.6 265.377C1299.56 265.377 1283.23 263.406 1264.62 259.462ZM1456.28 261V109.919H1393.57V85.9017H1555.54V109.919H1492.84V261H1456.28Z" fill="#1B1B1B"/>
<path d="M2649.55 256V83.599H2685.43V256H2649.55ZM2728.76 256V83.599H2760.33L2840.24 201.368V83.599H2869.01V256H2836.86L2757.53 138.231V256H2728.76ZM2957.19 256L2893.47 83.599H2931.8L2981.19 216.977L3028.95 83.599H3054.81L2993.19 256H2957.19ZM3078.92 256V83.599H3186.67V107.246H3114.8V155.355H3173.74V179.118H3114.8V231.538H3192.15V256H3078.92ZM3222.2 256V83.599H3253.77L3333.68 201.368V83.599H3362.45V256H3330.3L3250.97 138.231V256H3222.2ZM3448.3 256V107.246H3386.56V83.599H3546.04V107.246H3484.3V256H3448.3ZM3647.03 260.31C3629.09 260.31 3613.48 256.621 3600.2 249.244C3586.92 241.789 3576.83 231.111 3569.92 217.21C3563 203.231 3559.55 187.428 3559.55 169.799C3559.55 152.249 3563 136.484 3569.92 122.506C3576.83 108.527 3586.96 97.8492 3600.32 90.4717C3613.68 83.0165 3629.25 79.2889 3647.03 79.2889C3664.74 79.2889 3680.27 83.0165 3693.62 90.4717C3706.98 97.8492 3717.12 108.527 3724.03 122.506C3730.94 136.484 3734.4 152.249 3734.4 169.799C3734.4 187.428 3730.94 203.231 3724.03 217.21C3717.12 231.111 3707.02 241.789 3693.74 249.244C3680.54 256.621 3664.97 260.31 3647.03 260.31ZM3647.03 236.547C3663.65 236.547 3676 229.79 3684.07 216.278C3692.23 202.688 3696.3 187.156 3696.3 169.683C3696.3 152.132 3692.23 136.639 3684.07 123.205C3675.92 109.692 3663.57 102.936 3647.03 102.936C3630.41 102.936 3618.02 109.692 3609.87 123.205C3601.72 136.639 3597.64 152.132 3597.64 169.683C3597.64 187.156 3601.68 202.688 3609.75 216.278C3617.91 229.79 3630.33 236.547 3647.03 236.547ZM3766.66 256V83.599H3831.2C3844.4 83.599 3854.45 85.2686 3861.37 88.6079C3868.28 91.8695 3873.71 96.8785 3877.67 103.635C3881.71 110.313 3883.73 117.885 3883.73 126.35C3883.73 136.445 3880.82 145.997 3875 155.006C3869.17 163.936 3860.94 170.77 3850.3 175.507L3906.68 256H3863L3820.25 185.525H3800.44V256H3766.66ZM3800.44 161.878H3808.71C3823.55 161.878 3833.76 158.656 3839.35 152.21C3844.94 145.764 3847.74 138.464 3847.74 130.31C3847.74 123.243 3845.45 117.652 3840.86 113.536C3836.28 109.343 3826.96 107.246 3812.91 107.246H3800.44V161.878ZM3972.38 256V183.778L3914.48 83.599H3954.09L3996.14 156.403L4040.06 83.599H4068.48L4008.26 183.545V256H3972.38Z" fill="#DCA413"/>
<path d="M2380.55 261V88.5959H2416.43V261H2380.55ZM2502.51 261V112.243H2440.78V88.5959H2600.25V112.243H2538.51V261H2502.51Z" fill="#1B1B1B"/>
</svg>
